{"glyphs":{"0":{"ha":764,"x_min":0,"x_max":0,"o":"m 28 365 b 297 46 28 189 108 46 b 425 76 343 46 383 57 b 703 485 586 150 660 322 b 733 667 718 543 733 606 b 232 897 769 953 390 1042 b 28 365 83 761 28 564 z m 158 333 b 176 494 158 388 165 440 b 440 826 200 611 299 826 b 588 631 556 819 588 722 b 301 163 588 493 481 163 b 158 333 201 163 158 242 z m 179 326 b 304 183 179 251 225 183 b 564 625 463 183 564 504 b 433 808 572 719 531 792 l 429 808 b 235 604 349 808 261 664 b 206 524 231 593 210 538 b 179 326 185 463 179 390 z m 285 413 b 375 625 285 451 319 625 b 428 561 403 628 428 624 l 428 558 b 336 375 428 489 385 421 b 307 364 328 368 318 364 b 285 410 285 364 285 393 z "},"1":{"ha":567,"x_min":0,"x_max":0,"o":"m 119 49 b 169 24 121 26 149 24 l 185 24 b 269 22 189 24 247 22 b 353 24 282 22 340 24 b 449 58 375 26 438 35 l 539 876 b 486 950 539 913 528 950 b 332 928 475 950 354 928 b 183 879 294 918 183 889 l 136 760 b 29 626 94 656 28 656 l 74 501 b 89 490 76 494 82 490 b 175 528 126 490 144 515 l 119 56 b 118 51 119 56 118 54 b 119 49 118 50 119 50 z m 300 126 l 350 746 b 351 783 351 758 351 771 b 349 817 351 794 349 806 l 174 631 b 161 622 174 625 160 624 b 150 633 156 622 150 626 b 167 650 150 640 164 649 l 339 840 b 356 850 342 844 350 850 b 368 840 360 850 367 847 l 372 768 l 318 107 b 308 100 318 101 313 100 b 301 104 307 100 301 100 z "},"2":{"ha":708,"x_min":0,"x_max":0,"o":"m 28 85 b 42 71 28 76 35 71 l 603 29 l 631 29 b 638 38 633 29 636 35 l 644 104 l 679 288 b 681 296 679 288 681 294 b 631 324 679 321 650 322 l 626 324 l 410 332 l 556 501 b 654 686 601 554 632 619 b 650 704 654 697 650 704 b 663 756 658 721 663 751 b 618 900 663 807 644 857 b 407 996 564 988 499 996 b 128 953 311 996 221 983 b 71 919 114 947 75 932 b 46 668 56 838 46 753 b 63 614 46 647 43 614 b 157 656 81 614 122 649 l 168 660 b 292 693 206 675 251 693 b 336 642 325 693 336 678 b 300 578 336 615 318 594 l 164 460 b 28 88 67 363 42 224 z m 211 189 b 193 211 199 189 193 196 l 279 371 l 453 633 b 490 747 474 665 490 707 b 368 829 490 831 426 829 b 235 814 325 829 276 829 b 183 793 219 807 200 793 b 175 801 178 793 175 799 b 181 811 175 806 176 808 b 379 853 242 843 308 853 b 513 731 456 853 513 832 b 272 314 513 693 485 619 l 222 217 l 222 211 l 489 199 b 517 183 499 199 515 197 b 482 178 517 174 496 179 z "},"3":{"ha":807,"x_min":0,"x_max":0,"o":"m 28 90 l 31 68 b 160 32 31 53 133 35 l 364 11 b 758 386 600 11 758 149 b 657 594 758 464 732 554 b 590 624 638 604 610 611 l 636 689 l 775 942 b 779 958 779 950 779 951 b 428 1004 776 1000 547 1004 b 106 994 319 1004 213 994 l 69 994 b 43 754 54 988 40 740 b 63 739 46 743 51 739 b 67 740 64 739 67 740 l 399 754 b 210 614 357 731 274 674 b 201 601 203 611 201 607 b 203 592 201 601 201 592 l 231 553 l 292 446 b 296 443 292 443 294 443 b 339 460 314 443 325 453 b 450 481 375 478 406 481 b 488 436 472 474 488 461 b 310 332 488 349 375 332 b 83 371 232 332 161 364 b 57 339 64 371 58 354 z m 186 160 l 186 164 b 188 168 186 165 186 168 l 358 168 b 379 172 361 168 375 171 b 611 321 488 197 558 218 b 628 400 624 344 628 372 b 443 550 628 518 539 550 b 353 547 408 550 389 550 b 342 543 349 544 346 543 b 332 553 338 543 332 547 b 353 586 332 554 351 578 l 540 843 l 544 853 b 525 858 544 854 533 858 l 200 879 b 156 901 186 881 156 881 b 161 906 156 904 157 906 b 193 900 171 906 182 900 l 503 882 b 569 856 524 882 567 881 b 568 850 569 854 568 850 l 554 822 l 374 575 l 374 568 b 456 569 403 568 429 569 b 647 397 528 569 647 546 b 268 144 647 214 461 144 b 186 160 236 144 186 140 z "},"6":{"ha":754,"x_min":0,"x_max":0,"o":"m 29 329 b 379 14 44 121 185 14 b 726 340 549 14 726 165 b 447 561 726 472 564 561 b 360 547 418 561 389 547 b 469 746 360 585 449 710 l 621 947 b 624 954 624 950 624 951 b 578 992 624 979 596 988 b 333 1040 389 1033 336 1040 b 313 1031 324 1040 318 1035 b 83 647 210 931 129 788 b 28 364 54 557 28 463 b 29 329 28 353 28 340 z m 154 339 b 153 379 153 353 153 365 b 279 768 153 521 206 657 b 383 914 301 803 374 904 l 418 953 b 433 960 421 956 433 960 b 442 949 438 960 442 954 b 417 925 442 939 424 932 b 176 429 294 764 204 638 b 174 389 176 419 174 385 b 178 371 174 379 174 371 b 401 457 249 418 304 457 b 579 344 471 457 579 443 b 375 110 579 244 489 110 b 154 339 246 110 163 213 z m 175 325 b 375 132 182 217 271 132 b 533 261 451 132 510 193 b 558 349 542 285 558 319 b 400 438 558 429 451 438 b 185 347 306 438 258 396 b 174 342 185 346 176 342 b 175 325 174 339 175 326 z m 308 300 l 308 311 b 388 354 308 356 353 354 l 396 354 b 451 322 428 354 451 351 b 364 246 451 276 404 246 b 308 300 328 246 311 263 z "},"9":{"ha":744,"x_min":0,"x_max":0,"o":"m 46 121 b 94 85 46 103 81 89 l 336 -7 b 429 46 363 -7 407 24 l 542 156 b 717 614 647 258 717 443 b 378 997 717 814 619 997 b 28 642 194 997 28 825 b 275 404 28 506 142 404 b 372 419 308 404 339 411 b 325 349 363 394 343 368 b 50 132 244 263 153 189 b 46 121 44 129 46 125 z m 296 132 b 511 508 390 226 474 374 b 526 594 511 535 526 565 b 524 590 526 593 524 592 b 331 504 464 543 410 504 b 158 664 226 504 158 553 b 371 896 158 783 247 896 b 550 613 510 896 550 708 b 431 278 550 501 489 369 b 343 150 411 246 350 157 l 310 117 b 301 114 308 117 299 111 b 296 117 300 115 296 117 z m 179 667 b 335 525 179 565 239 525 b 514 608 404 525 463 563 b 529 600 524 608 526 608 b 369 875 529 696 494 875 b 179 667 263 875 179 771 z m 301 690 b 364 744 301 718 338 744 l 417 744 b 450 697 424 736 450 718 b 371 626 450 658 407 626 b 301 690 335 626 301 653 z "},"\u0000":{"ha":0,"x_min":0,"x_max":0,"o":""},"\r":{"ha":403,"x_min":0,"x_max":0,"o":""}," ":{"ha":403,"x_min":0,"x_max":0,"o":""},"!":{"ha":465,"x_min":0,"x_max":0,"o":"m 72 360 l 72 293 b 156 267 72 269 128 267 b 331 415 281 267 308 297 l 438 975 l 438 982 b 260 1068 438 1061 317 1068 b 161 1026 242 1068 160 1061 z m 28 90 b 171 3 28 26 121 3 b 279 82 214 3 279 29 b 204 167 279 119 213 163 b 133 178 182 175 157 178 b 28 90 85 178 28 143 z m 181 347 l 181 353 l 290 967 b 301 972 292 972 297 972 b 308 963 308 972 308 969 b 306 928 308 951 307 940 l 201 350 b 190 336 200 347 199 336 b 181 347 183 336 181 342 z "},"$":{"ha":833,"x_min":0,"x_max":0,"o":"m 556 1086 b 447 1119 556 1133 490 1119 b 374 1083 417 1113 374 1115 b 364 888 374 1081 374 1071 b 172 603 256 831 172 736 b 185 528 172 574 176 556 l 242 382 b 258 293 253 354 258 322 b 28 3 258 144 28 24 b 308 -31 28 -29 269 -31 l 325 -31 l 318 -219 b 358 -242 318 -235 350 -242 b 463 -224 393 -242 429 -231 b 493 -185 488 -224 492 -204 l 503 -14 b 706 183 661 19 706 97 b 622 415 706 269 656 339 b 578 561 603 460 578 558 b 806 733 578 661 806 671 b 764 800 806 754 778 779 l 690 907 b 646 957 676 931 678 957 b 546 949 614 957 581 954 b 556 1086 554 1071 556 1083 z m 456 1047 b 483 1050 456 1067 481 1069 b 482 790 485 982 479 858 l 529 810 b 596 836 542 822 578 836 b 621 821 604 836 621 835 b 611 814 621 814 618 814 l 604 814 b 363 540 496 786 363 668 b 497 213 363 415 497 336 b 424 103 497 165 464 129 l 422 -125 b 394 -124 419 -144 394 -142 l 400 88 b 264 44 344 58 283 44 b 254 53 261 44 254 49 b 475 213 254 69 475 110 b 342 543 475 297 342 411 b 456 771 342 631 386 715 b 454 775 454 772 454 774 b 456 1047 453 849 457 975 z "},"'":{"ha":213,"x_min":0,"x_max":0,"o":"m 83 999 b 44 943 54 999 46 963 l 28 701 b 111 672 28 664 83 683 b 122 674 111 672 119 674 b 185 972 165 674 185 899 b 182 994 185 986 183 994 l 86 1000 z m 99 949 b 122 947 104 963 121 961 b 101 728 121 874 104 801 b 78 729 100 711 78 713 b 99 949 81 804 97 875 z "},"(":{"ha":497,"x_min":0,"x_max":0,"o":"m 28 397 b 225 8 28 239 82 67 b 304 -12 249 -3 279 -12 l 425 -12 b 443 115 447 -12 443 121 b 428 147 443 140 439 144 b 382 156 422 147 386 156 b 268 394 269 188 268 265 l 289 571 b 407 736 297 644 336 722 b 440 746 410 738 435 736 b 468 888 453 769 447 836 b 414 929 472 908 426 929 b 28 397 161 929 28 646 z m 121 375 b 283 800 121 538 163 700 b 376 847 308 821 344 846 b 392 835 383 847 392 844 b 386 828 392 832 388 829 b 283 772 349 825 313 801 b 143 386 179 665 143 543 b 240 111 143 272 158 181 b 344 76 268 88 301 76 l 346 76 b 361 64 353 75 361 74 b 350 54 361 56 356 54 b 121 375 188 54 121 214 z "},")":{"ha":497,"x_min":0,"x_max":0,"o":"m 469 397 b 83 929 469 646 336 929 b 29 888 71 929 25 908 b 57 746 50 836 44 769 b 90 736 63 736 88 738 b 208 571 161 722 200 644 l 229 394 b 115 156 229 265 228 188 b 69 147 111 156 75 147 b 54 115 58 144 54 140 b 72 -12 54 121 50 -12 l 193 -12 b 272 8 218 -12 249 -3 b 469 397 415 67 469 239 z m 376 375 b 147 54 376 214 310 54 b 136 64 142 54 136 56 b 151 76 136 74 144 75 l 153 76 b 257 111 196 76 229 88 b 354 386 339 181 354 272 b 214 772 354 543 318 665 b 111 828 185 801 149 825 b 106 835 110 829 106 832 b 121 847 106 844 114 847 b 214 800 153 846 189 821 b 376 375 335 700 376 538 z "},",":{"ha":317,"x_min":0,"x_max":0,"o":"m 81 -93 b 186 -49 117 -93 158 -69 b 289 90 232 -15 289 28 b 94 179 282 172 157 196 b 28 86 57 163 28 131 b 131 18 28 35 92 24 b 67 -81 115 -17 92 -56 b 81 -93 67 -90 74 -93 z "},"-":{"ha":475,"x_min":0,"x_max":0,"o":"m 28 335 b 100 297 28 299 74 296 l 410 318 b 439 349 429 319 439 331 b 447 425 442 363 446 415 l 447 438 b 375 490 447 492 425 486 b 319 492 367 490 329 492 b 265 490 307 492 268 490 b 104 479 240 490 128 482 b 79 475 100 479 82 475 b 36 454 57 472 40 476 b 28 339 33 436 29 356 z m 114 390 b 108 397 108 392 108 394 b 111 404 108 400 108 403 l 119 404 b 311 401 183 404 247 401 b 361 404 329 401 344 404 l 374 404 b 375 396 376 403 375 399 b 374 390 375 394 376 390 b 304 385 347 385 329 385 l 263 385 b 114 390 240 385 136 389 z "},".":{"ha":299,"x_min":0,"x_max":0,"o":"m 29 96 b 157 8 29 36 107 8 b 269 101 211 10 271 39 b 192 167 269 139 222 158 l 144 178 l 133 178 b 29 96 89 178 28 149 z "},"/":{"ha":508,"x_min":0,"x_max":0,"o":"m 38 11 b 206 -1 63 8 194 -1 b 229 19 215 -1 226 10 l 472 843 b 481 885 476 858 481 871 b 425 918 481 908 438 918 l 268 932 b 244 899 253 933 247 911 l 29 36 b 38 11 29 26 26 14 z m 111 113 b 114 126 110 113 114 124 l 297 733 b 372 867 315 769 340 867 b 375 861 374 865 375 863 b 329 767 375 863 339 786 l 135 129 l 135 125 b 121 101 135 115 131 101 b 111 113 119 101 113 108 z "},":":{"ha":299,"x_min":0,"x_max":0,"o":"m 29 606 b 157 518 29 546 107 518 b 269 611 211 519 271 549 b 192 676 269 649 222 668 l 144 688 l 133 688 b 29 606 89 688 28 658 z m 29 96 b 157 8 29 36 107 8 b 269 101 211 10 271 39 b 192 167 269 139 222 158 l 144 178 l 133 178 b 29 96 89 178 28 149 z "},";":{"ha":317,"x_min":0,"x_max":0,"o":"m 81 -93 b 186 -49 117 -93 158 -69 b 289 90 232 -15 289 28 b 94 179 282 172 157 196 b 28 86 57 163 28 131 b 131 18 28 35 92 24 b 67 -81 115 -17 92 -56 b 81 -93 67 -90 74 -93 z m 29 606 b 157 518 29 546 107 518 b 269 611 211 519 271 549 b 192 676 269 649 222 668 l 144 688 l 133 688 b 29 606 89 688 28 658 z "},"?":{"ha":667,"x_min":0,"x_max":0,"o":"m 186 282 b 203 261 186 269 193 263 b 256 256 213 260 249 256 l 275 256 b 365 258 306 256 332 258 l 367 258 b 414 282 383 260 410 263 b 485 546 425 368 431 472 b 574 644 500 561 561 631 b 639 799 606 682 639 747 b 610 883 639 826 628 861 b 369 971 549 958 461 971 b 146 933 294 971 217 954 l 114 918 l 44 881 l 43 879 b 28 861 36 875 29 871 b 31 853 28 861 31 854 b 42 782 40 829 38 814 l 60 685 b 85 653 64 669 68 653 b 136 669 103 653 118 667 b 285 701 189 685 233 701 l 306 701 b 332 667 322 697 332 685 b 324 647 332 658 329 656 b 322 644 324 646 322 646 b 192 392 253 572 199 496 b 186 283 192 389 188 314 z m 136 93 b 261 4 136 28 211 4 b 421 117 322 4 421 38 b 311 203 421 156 344 203 b 176 163 265 203 208 196 b 174 161 175 163 175 161 b 136 93 154 142 136 124 z m 275 338 b 310 493 275 390 285 449 b 365 588 324 518 363 586 l 464 713 b 483 760 475 725 483 743 b 394 803 483 803 425 803 l 390 803 b 143 769 300 803 228 796 b 138 768 143 769 139 768 b 126 776 133 768 126 769 b 138 785 126 781 135 783 b 383 822 221 813 297 822 l 389 822 b 504 758 432 822 504 822 b 483 703 504 739 494 717 l 382 578 b 325 482 381 574 340 508 b 293 336 301 440 296 385 b 283 331 292 331 286 331 b 275 338 276 331 275 331 z "},"@":{"ha":1000,"x_min":0,"x_max":0,"o":"m 651 65 b 411 11 581 22 513 11 b 250 46 371 11 296 25 b 124 353 157 89 124 243 b 550 885 124 576 264 894 b 815 726 654 881 753 822 b 872 497 860 657 872 579 b 824 263 872 413 856 342 b 811 240 822 257 818 246 l 700 232 b 592 286 664 232 592 232 l 592 369 l 611 563 b 524 696 611 636 599 682 l 471 696 b 349 669 453 696 393 683 l 347 669 b 325 607 318 663 325 631 b 343 503 325 578 318 503 l 346 503 b 421 518 356 506 410 517 l 467 518 b 478 492 476 513 478 501 b 476 481 478 490 476 482 l 440 456 l 326 397 b 244 244 271 368 244 304 b 356 139 244 174 288 139 b 490 208 410 139 453 174 b 494 204 493 208 494 204 l 504 185 b 656 135 535 140 613 135 b 724 138 679 135 701 138 l 733 138 b 928 246 819 146 876 172 b 972 478 957 319 972 397 b 522 974 972 728 828 974 b 504 972 518 974 504 972 b 161 758 307 932 204 828 l 156 747 b 28 358 81 629 28 517 b 308 -79 28 175 114 -58 l 436 -93 l 504 -93 b 750 -3 615 -83 679 -54 b 669 68 750 36 708 68 b 651 65 664 68 657 67 z m 529 236 b 518 271 529 236 519 271 l 426 218 b 368 201 408 208 386 201 b 296 257 332 201 296 213 b 519 444 296 336 479 438 b 522 551 522 485 522 513 b 496 625 522 603 528 625 b 392 607 461 625 414 607 b 383 615 385 607 383 611 b 499 644 383 633 481 644 l 514 644 b 543 579 540 636 543 606 b 536 324 543 494 536 408 b 596 201 536 276 540 211 b 624 200 600 201 611 201 b 618 183 626 192 628 183 b 615 182 617 182 615 182 b 529 236 574 189 540 203 z m 315 258 b 369 221 315 225 343 221 b 517 294 397 221 493 271 b 519 428 518 335 519 383 b 501 421 514 428 507 425 b 315 258 336 321 315 292 z m 358 275 b 467 361 358 310 453 361 l 471 361 l 471 319 b 371 268 471 282 379 268 b 358 275 365 268 358 268 z m 783 186 b 756 188 781 168 753 169 b 783 186 758 206 781 201 z m 831 206 b 803 203 828 190 806 186 b 831 206 800 222 828 224 z m 722 183 b 694 181 719 168 697 164 b 722 183 692 200 719 201 z m 669 186 b 642 183 667 171 644 167 b 669 186 639 203 667 204 z "},"A":{"ha":793,"x_min":0,"x_max":0,"o":"m 33 19 b 156 3 44 3 100 3 b 306 76 208 3 306 7 b 318 300 310 151 311 225 l 450 300 l 450 57 b 569 14 450 19 522 14 b 726 19 629 14 672 19 b 744 17 732 19 738 17 b 765 383 761 17 765 365 b 756 593 765 415 756 563 b 428 997 756 864 594 997 b 63 626 265 997 97 872 b 28 157 40 468 28 315 b 33 19 28 111 28 67 z m 594 424 l 550 424 b 250 404 456 414 350 404 b 169 407 222 404 196 406 l 164 396 l 164 132 b 168 113 167 124 168 121 b 160 106 168 107 165 106 b 144 140 146 106 144 132 l 144 375 b 161 528 144 382 156 489 b 500 903 185 718 282 903 b 606 689 590 882 604 710 l 625 92 b 617 88 624 88 617 88 b 606 94 613 88 606 88 z m 169 432 b 172 426 169 429 171 426 l 318 426 l 594 447 b 574 756 594 550 585 711 b 475 883 565 810 538 883 b 169 432 249 883 190 626 z m 417 782 b 442 700 439 782 442 735 b 435 532 442 607 444 597 b 336 513 435 514 353 513 b 338 606 336 526 338 593 b 417 782 339 639 363 782 z "},"B":{"ha":750,"x_min":0,"x_max":0,"o":"m 679 267 b 551 447 679 360 633 408 b 614 496 565 467 597 481 b 722 793 703 574 722 681 b 325 971 686 974 449 972 l 303 971 b 81 932 225 971 86 971 l 69 849 l 28 17 b 329 -8 104 10 218 -8 b 679 267 510 -8 679 39 z m 161 146 b 167 704 161 371 167 506 b 271 893 178 824 164 893 b 560 731 401 893 560 896 b 292 432 560 600 424 476 b 503 271 385 418 503 388 b 258 68 503 146 406 68 b 161 146 160 68 161 94 z m 188 689 b 185 467 188 657 185 501 l 185 432 b 540 731 350 432 540 592 b 300 871 540 868 404 871 b 188 689 211 871 201 863 z m 188 94 b 257 88 213 90 243 88 b 482 271 386 88 482 156 b 222 413 482 397 307 413 b 185 407 210 413 196 411 b 181 242 179 356 181 289 b 188 92 181 174 186 92 z m 350 774 b 439 706 396 774 439 761 b 329 558 439 639 407 558 l 329 581 b 350 774 329 582 344 763 z m 321 322 b 332 324 322 322 329 324 b 399 269 371 324 399 313 b 321 164 399 231 368 164 z "},"C":{"ha":858,"x_min":0,"x_max":0,"o":"m 29 435 b 328 11 29 246 104 11 b 718 214 604 11 643 81 l 731 236 b 542 392 731 257 553 388 b 343 415 447 217 343 236 b 468 678 343 586 419 678 b 526 571 501 678 526 643 l 526 561 b 831 653 593 568 831 626 b 821 700 831 682 829 669 b 817 718 821 706 817 711 b 501 971 774 868 646 971 b 28 467 213 971 28 742 b 29 435 28 457 28 446 z m 175 406 b 463 835 175 586 274 835 b 668 721 549 835 619 797 b 663 707 668 711 669 707 b 636 732 650 707 643 725 b 463 813 589 789 533 813 b 194 404 285 813 194 571 b 390 133 194 279 260 133 b 536 221 457 133 496 176 l 544 229 b 553 233 547 233 549 233 b 560 214 561 233 560 219 b 392 108 515 163 460 108 b 175 406 244 108 175 265 z "},"D":{"ha":854,"x_min":0,"x_max":0,"o":"m 28 19 b 135 -4 28 -4 122 -4 b 442 25 236 -4 342 1 b 826 601 685 83 826 378 b 594 906 826 751 742 868 b 318 928 522 919 414 928 b 100 892 204 928 106 917 l 65 608 l 28 22 z m 201 131 l 201 140 l 251 814 b 263 822 251 819 258 822 b 271 817 264 822 269 818 l 428 806 b 497 790 431 804 479 794 b 647 604 588 768 647 697 b 386 157 647 447 522 235 b 231 111 338 129 283 129 b 217 110 222 111 218 110 b 201 131 204 110 201 126 z m 225 190 l 225 138 b 229 132 225 135 226 132 b 625 604 414 132 625 386 b 271 790 625 792 410 790 l 269 788 z m 356 349 l 372 640 b 479 567 451 640 479 640 b 356 346 479 485 418 372 z "},"E":{"ha":686,"x_min":0,"x_max":0,"o":"m 29 83 b 93 -6 31 40 43 -6 b 468 11 190 -6 324 6 b 554 68 508 13 549 24 l 572 225 l 572 257 b 546 276 572 265 554 276 l 322 285 l 322 306 l 426 322 b 476 519 458 328 476 461 b 443 536 476 539 457 536 b 358 533 415 536 386 533 b 346 543 350 533 346 535 b 368 643 346 571 349 643 b 422 640 386 643 403 640 l 572 654 b 658 864 658 663 658 849 b 465 935 658 936 510 935 l 458 935 b 364 936 446 935 371 936 b 113 901 275 936 136 929 b 28 167 74 856 28 253 b 29 83 28 154 28 96 z m 188 121 l 188 196 l 218 582 l 253 799 b 264 808 254 806 258 808 b 308 801 268 808 292 801 b 543 811 388 801 464 811 b 549 803 546 810 549 806 b 515 790 549 790 524 790 l 514 790 l 269 779 l 222 413 l 207 175 l 207 133 b 449 144 288 133 368 144 b 468 135 456 144 468 144 b 211 111 468 115 217 111 l 196 111 z m 242 415 b 249 424 242 419 240 424 l 388 426 b 396 417 392 426 396 421 b 388 407 396 411 392 407 l 249 407 b 242 415 240 407 242 410 z "},"F":{"ha":628,"x_min":0,"x_max":0,"o":"m 28 169 l 28 22 b 76 -6 28 -1 49 -6 b 389 169 396 -6 389 15 b 381 322 388 185 381 307 b 403 342 381 339 392 342 b 424 340 410 342 418 340 b 481 413 468 340 475 347 b 492 511 486 440 490 511 b 381 547 489 542 425 547 l 375 550 b 376 683 375 594 376 638 b 485 681 414 683 449 681 b 589 742 539 681 581 681 l 600 857 b 531 913 600 903 567 907 b 286 924 422 917 382 924 b 71 883 211 924 71 924 z m 218 432 b 219 424 218 431 218 426 l 204 114 b 193 106 203 114 197 106 b 183 114 190 106 183 110 l 183 196 l 218 828 l 221 832 l 244 832 l 450 822 b 461 808 457 821 461 815 b 453 799 461 801 460 799 b 442 801 449 799 444 799 l 256 811 l 239 811 l 219 435 b 346 443 233 443 306 443 l 357 443 b 381 436 372 443 381 442 b 364 424 381 428 371 424 l 219 424 l 219 435 b 218 432 218 433 218 433 z "},"G":{"ha":893,"x_min":0,"x_max":0,"o":"m 31 411 b 28 354 28 390 28 372 b 64 194 28 297 39 251 b 486 4 135 32 299 4 b 731 28 568 4 649 14 b 821 157 835 46 811 56 b 865 526 853 500 865 519 b 686 561 865 561 760 561 l 672 561 b 507 554 617 561 563 558 l 494 554 b 422 386 440 554 435 517 b 421 363 421 378 421 369 b 461 314 421 329 429 314 b 568 322 497 314 532 322 l 581 322 l 574 250 b 507 219 571 224 536 219 b 311 413 375 219 311 304 b 343 538 311 460 319 500 b 596 653 399 629 511 653 b 758 650 651 653 694 650 b 800 910 792 650 789 800 b 681 953 790 954 724 953 l 672 953 b 31 411 285 939 65 749 z m 142 464 b 622 828 165 682 411 828 l 631 828 b 697 806 653 828 697 828 b 689 800 697 801 694 800 b 603 810 661 801 632 810 b 164 442 411 810 164 643 b 197 304 164 392 176 350 b 528 101 261 157 356 101 b 664 119 576 101 663 103 l 732 411 l 732 413 b 539 453 732 450 539 436 b 557 468 539 465 546 468 b 757 424 661 468 757 444 l 685 110 b 554 79 679 83 601 79 b 164 329 336 79 229 142 b 140 443 151 365 140 404 b 142 464 140 450 140 457 z "},"H":{"ha":864,"x_min":0,"x_max":0,"o":"m 28 100 l 28 -6 b 54 -22 28 -19 42 -22 b 315 -7 140 -22 231 -21 b 365 75 364 1 365 29 b 368 271 365 104 368 242 b 506 272 414 271 458 272 l 506 29 b 644 3 506 3 608 3 l 657 3 b 715 11 663 3 704 8 b 804 46 733 14 790 28 b 836 879 822 610 836 743 b 754 914 836 919 776 911 b 588 929 699 921 644 929 b 524 883 543 929 526 929 l 497 493 l 410 493 b 422 892 410 626 422 758 b 325 913 414 913 350 913 l 317 913 b 94 868 224 913 99 914 l 64 672 z m 671 369 b 518 357 664 369 569 365 l 231 351 l 231 129 b 214 88 231 119 231 88 b 206 99 206 88 206 90 b 210 140 206 114 207 124 b 226 669 204 214 204 264 l 240 790 b 256 811 242 799 246 811 b 264 801 258 811 264 807 b 257 779 263 796 257 785 l 232 415 l 232 376 b 392 375 257 376 367 375 b 668 396 510 375 668 390 l 676 790 b 689 811 678 803 676 811 b 697 806 693 811 697 811 b 692 546 697 718 692 632 b 703 83 692 392 703 238 b 693 75 703 78 697 75 b 682 101 682 75 682 94 l 682 103 b 671 369 682 143 672 329 z "},"I":{"ha":422,"x_min":0,"x_max":0,"o":"m 29 47 b 83 13 33 18 58 15 l 86 13 b 144 11 97 13 138 11 b 188 10 147 11 178 10 b 226 11 197 10 224 11 b 306 17 239 11 294 15 b 375 68 343 21 371 28 b 381 122 376 76 381 114 b 393 472 383 175 392 419 b 394 581 393 478 394 554 b 393 688 394 607 393 683 b 385 914 393 721 386 879 b 321 943 383 940 338 943 l 251 943 b 93 938 199 943 146 938 l 68 938 b 58 940 65 940 63 940 b 47 932 53 940 51 939 b 29 444 43 858 31 518 b 28 246 29 435 28 296 b 29 47 28 215 29 76 z m 181 135 l 181 858 l 183 858 b 211 704 214 865 215 867 b 206 140 208 599 204 425 b 208 132 206 140 207 133 l 208 131 b 193 104 208 122 203 104 b 183 111 189 104 185 106 z "},"J":{"ha":682,"x_min":0,"x_max":0,"o":"m 28 172 b 51 125 28 157 40 138 b 311 -3 129 44 194 -3 b 453 38 361 -3 408 14 b 654 707 642 139 646 361 b 647 904 654 729 649 868 b 638 947 647 913 647 938 b 611 956 632 951 617 954 b 532 965 590 958 535 964 l 479 965 b 361 961 436 965 404 965 b 338 947 350 960 342 957 l 338 889 b 346 725 338 872 346 740 b 347 576 347 718 347 615 b 346 429 347 554 347 453 b 343 397 346 425 343 401 b 306 319 342 381 331 321 b 217 411 251 315 251 400 b 197 403 208 414 203 408 b 51 206 68 229 54 207 b 28 172 44 196 28 188 z m 164 211 l 164 217 b 172 226 164 224 165 226 b 192 207 181 226 186 213 b 293 156 221 176 249 156 b 460 397 413 156 442 304 b 496 819 464 428 483 581 b 501 871 496 826 500 863 b 514 876 504 876 508 876 b 522 868 521 876 522 875 l 522 865 l 497 508 b 474 360 497 499 481 393 b 296 132 456 268 411 132 b 164 211 240 132 193 167 z "},"K":{"ha":871,"x_min":0,"x_max":0,"o":"m 28 738 l 64 89 b 74 35 65 86 71 49 b 115 7 78 13 93 7 b 356 25 194 7 276 14 b 399 101 399 31 399 67 l 399 107 b 399 329 400 140 400 297 l 404 326 b 449 283 407 325 438 296 b 475 229 461 269 469 249 b 493 157 479 210 493 160 l 513 29 b 540 7 513 13 526 7 l 544 7 b 594 11 550 7 589 11 b 772 11 611 11 756 10 b 825 13 779 11 817 13 b 843 29 833 14 840 21 l 843 47 b 813 244 843 113 828 181 b 603 518 778 386 728 443 b 554 536 589 526 568 532 l 557 539 l 600 574 b 639 611 604 576 632 604 b 808 932 719 699 776 819 b 810 940 810 932 810 939 b 779 965 810 958 794 963 b 726 971 768 967 732 969 b 539 979 718 971 586 978 l 532 979 b 472 950 508 979 481 975 b 319 638 444 854 382 711 l 319 746 b 322 950 319 814 322 882 b 296 978 322 968 311 975 b 149 989 246 985 199 989 b 38 968 111 989 72 981 b 28 933 28 961 28 940 z m 642 99 b 578 308 631 171 607 242 b 421 493 543 389 497 449 b 354 515 399 507 379 515 l 335 515 b 196 388 292 468 246 426 b 192 376 190 383 192 383 b 199 118 192 290 199 206 b 189 107 199 113 196 107 b 178 117 182 107 179 111 b 168 424 175 163 168 378 b 167 657 168 435 167 599 b 168 892 167 693 168 857 b 175 897 167 897 172 897 b 186 892 179 897 186 897 l 192 411 b 238 447 207 417 231 440 l 460 692 l 600 886 l 601 888 l 601 889 b 613 894 604 893 606 894 b 622 883 619 894 622 889 b 621 876 622 882 621 876 b 360 543 544 757 457 646 l 360 539 b 626 244 514 497 574 386 b 644 189 631 235 643 196 b 660 122 647 183 660 129 b 667 104 663 115 667 111 b 654 89 667 94 663 89 b 642 99 647 89 644 92 z "},"L":{"ha":565,"x_min":0,"x_max":0,"o":"m 28 47 b 76 17 35 21 53 17 l 94 17 b 350 19 132 17 313 19 b 507 42 399 22 461 33 b 538 81 533 42 538 60 l 538 306 b 506 329 538 324 521 329 b 378 321 461 329 419 321 l 401 960 b 357 979 401 979 368 979 l 340 979 b 57 907 69 956 58 946 z m 185 125 l 229 843 b 244 883 229 851 229 883 b 253 876 250 883 253 882 b 249 851 253 868 251 861 l 207 144 l 210 139 b 229 138 211 138 224 138 b 378 154 278 138 338 147 b 393 144 385 154 393 151 b 231 117 393 126 276 117 l 215 117 b 192 119 210 117 193 119 z "},"M":{"ha":1214,"x_min":0,"x_max":0,"o":"m 28 18 b 61 4 28 4 53 4 b 143 1 72 3 129 1 l 217 1 l 294 7 b 319 38 310 11 317 25 b 328 76 322 49 328 76 l 368 439 l 371 451 l 496 342 b 524 325 503 335 514 325 b 539 329 531 325 532 326 b 742 543 611 397 671 474 l 744 539 b 757 500 746 539 754 511 b 767 463 760 493 765 468 l 779 397 l 815 49 b 836 22 815 38 822 24 b 1161 17 944 26 1053 13 b 1174 13 1165 13 1169 13 b 1185 19 1179 13 1183 13 b 1186 49 1185 24 1186 46 b 1031 774 1186 75 1186 90 b 1007 833 1031 775 1013 818 b 883 956 990 875 932 956 b 825 932 861 956 840 947 l 654 761 b 611 710 649 753 618 717 b 581 679 603 700 582 679 l 235 940 b 192 960 222 950 207 960 b 142 894 160 960 149 919 b 140 889 142 893 140 890 l 31 29 b 28 18 28 25 28 22 z m 168 125 l 250 693 b 267 719 251 706 253 719 b 300 701 281 719 292 708 l 358 651 b 432 603 365 647 425 608 l 504 546 l 522 533 b 535 526 526 531 535 526 b 544 533 536 526 542 531 l 818 789 b 835 797 821 790 831 797 b 854 775 844 797 853 785 l 990 281 b 1017 113 1004 229 1017 168 b 1015 101 1017 113 1015 104 b 1007 94 1013 96 1011 94 b 997 99 1004 94 999 94 l 985 201 l 843 743 l 836 761 b 833 767 835 763 833 767 l 831 767 b 815 756 828 767 817 757 l 540 503 b 538 501 540 503 539 501 b 496 524 524 501 506 517 l 411 592 b 350 631 404 594 356 626 l 322 651 l 276 692 l 274 692 b 271 688 272 692 271 689 l 188 135 l 188 101 b 176 94 188 97 181 94 b 168 101 172 94 168 96 z "},"N":{"ha":956,"x_min":0,"x_max":0,"o":"m 358 439 l 678 19 b 722 -8 685 10 708 -8 b 736 -6 729 -8 729 -7 b 858 47 747 0 846 42 b 928 104 889 60 928 63 l 928 113 l 915 207 l 882 783 l 867 914 b 810 953 864 942 835 953 l 660 953 b 606 821 610 953 607 940 b 611 508 606 717 611 611 l 611 497 l 550 610 l 429 904 b 321 961 407 958 374 960 l 143 961 b 92 910 113 961 96 940 b 76 803 88 881 76 807 l 28 122 l 28 22 b 61 7 28 10 54 7 b 253 -1 90 6 224 -1 b 257 -3 254 -1 250 -3 b 360 71 321 -3 365 3 z m 189 165 l 232 797 b 242 822 229 807 229 822 b 253 819 244 822 251 822 l 582 342 l 751 140 l 751 194 b 742 786 751 392 742 590 l 742 849 b 751 856 744 854 747 856 b 760 849 756 856 757 854 b 772 247 763 758 771 338 b 774 200 772 243 774 211 b 772 157 774 189 772 158 b 769 117 772 150 771 122 b 757 101 768 111 765 101 b 742 113 750 101 747 107 l 542 357 l 251 786 l 207 99 b 196 92 207 93 200 92 b 189 94 196 92 189 92 z "},"O":{"ha":974,"x_min":0,"x_max":0,"o":"m 28 418 b 403 26 28 200 153 26 b 908 406 661 26 836 157 b 946 619 928 475 946 547 b 563 1006 946 879 758 1006 b 28 418 311 1006 31 806 z m 179 461 b 557 874 179 665 301 874 b 815 647 688 874 815 786 b 426 178 815 432 650 178 b 179 461 264 178 179 308 z m 201 463 b 425 201 201 321 274 201 b 764 481 572 201 728 343 b 794 647 778 536 794 590 b 554 853 794 771 668 853 b 201 463 318 853 201 657 z m 326 486 b 508 725 335 650 428 725 b 639 579 576 725 639 674 b 438 369 639 488 557 369 b 326 486 364 369 326 432 z "},"P":{"ha":850,"x_min":0,"x_max":0,"o":"m 28 76 l 28 4 b 44 -11 28 -4 36 -11 l 332 -11 b 444 19 354 -11 436 -6 b 449 76 446 28 449 68 l 449 233 b 761 503 615 242 693 361 b 822 754 799 582 822 665 b 454 965 822 969 622 965 b 135 932 343 965 247 953 l 101 932 b 90 910 96 932 90 914 l 72 767 z m 214 93 b 204 429 213 143 204 379 l 204 517 b 214 794 204 610 214 701 b 211 813 214 803 211 806 b 219 825 211 818 214 824 b 508 865 322 846 393 854 l 514 865 b 710 701 617 865 710 810 b 531 421 710 594 622 467 l 318 315 b 236 289 293 303 264 293 l 236 93 b 225 86 236 86 229 86 b 214 93 219 86 217 86 z m 226 518 l 226 315 b 238 314 233 315 238 314 b 318 339 264 313 297 328 l 513 435 b 689 701 600 478 689 599 b 549 840 689 785 625 828 l 507 840 b 238 807 417 840 326 826 b 226 518 235 796 231 640 z m 388 707 l 394 719 l 472 719 b 500 693 486 719 496 706 l 500 674 b 394 497 500 604 440 539 b 392 496 393 497 393 496 l 390 497 b 388 503 389 497 388 501 z "},"Q":{"ha":857,"x_min":0,"x_max":0,"o":"m 640 65 l 644 65 b 650 58 644 65 649 60 b 718 -8 671 38 700 -8 b 829 86 739 -8 829 63 b 767 168 829 110 800 140 b 746 189 761 179 760 186 b 826 542 806 296 826 421 b 456 968 826 824 646 968 b 28 431 247 968 28 793 l 28 406 b 468 8 56 157 217 8 b 640 65 535 8 586 29 z m 586 218 l 579 218 l 565 206 b 417 158 518 174 472 158 b 168 442 265 158 168 300 b 467 853 168 571 263 853 b 703 564 633 853 703 699 b 597 235 703 443 658 335 l 724 94 b 726 85 725 90 726 88 b 718 76 726 79 724 76 l 714 76 b 586 218 664 117 633 175 z m 189 439 b 418 179 189 311 283 179 b 681 563 608 179 681 406 b 476 824 681 707 594 824 b 189 439 303 824 189 601 z m 318 496 b 568 543 318 681 568 747 b 421 340 568 450 511 340 b 318 496 350 340 318 422 z "},"R":{"ha":893,"x_min":0,"x_max":0,"o":"m 28 11 b 43 -7 28 1 33 -7 b 172 -1 85 -7 129 -1 b 336 8 226 -1 282 -1 l 344 13 b 358 44 356 19 358 31 l 379 247 b 382 258 379 249 382 257 b 471 8 469 206 471 101 b 494 -4 474 -3 483 -4 b 528 0 507 -4 514 -3 l 814 8 l 818 8 b 850 49 838 11 850 13 b 849 71 850 54 850 69 l 835 161 b 658 376 819 263 740 322 l 656 378 b 865 686 776 428 865 554 b 413 946 865 881 628 946 b 118 886 308 946 132 929 b 103 799 114 863 103 801 l 33 35 b 28 11 32 25 28 21 z m 635 88 b 369 379 600 210 518 379 b 347 378 363 379 349 378 l 208 356 l 192 108 b 183 100 192 106 186 100 b 174 106 181 100 175 104 l 213 722 b 224 801 213 726 221 781 b 268 842 228 829 240 842 b 369 849 288 844 360 849 l 497 849 b 700 617 617 838 700 735 b 424 397 700 485 525 424 l 421 393 b 483 367 433 388 465 376 b 653 103 572 314 621 197 b 658 89 658 97 658 96 b 647 79 658 83 653 79 b 636 85 640 79 639 81 z m 211 382 l 224 382 b 471 432 281 382 383 404 b 493 440 474 432 490 439 l 590 488 b 679 618 628 500 679 571 b 464 829 679 735 590 829 b 258 822 390 829 336 828 b 235 739 244 819 235 754 z m 497 642 b 369 522 497 589 421 522 l 361 522 l 374 667 b 426 685 374 676 399 685 b 497 642 460 685 497 674 z "},"S":{"ha":808,"x_min":0,"x_max":0,"o":"m 28 3 b 308 -31 28 -29 269 -31 b 681 194 629 -31 681 81 b 575 415 681 281 608 339 b 528 579 542 490 528 542 b 772 728 528 692 661 658 b 781 749 779 732 781 739 b 764 800 781 765 772 786 l 690 907 b 646 957 676 931 678 957 b 172 603 444 957 172 846 b 185 528 172 574 176 556 l 242 382 b 258 293 253 354 258 322 b 28 3 258 144 28 24 z m 254 53 b 475 213 254 69 475 110 b 342 543 475 297 342 411 b 524 807 342 653 436 757 l 529 810 b 596 836 542 822 578 836 b 621 821 604 836 621 835 b 611 814 621 814 618 814 l 604 814 b 363 540 496 786 363 668 b 497 213 363 415 497 336 b 264 44 497 97 301 44 b 254 53 261 44 254 49 z "},"T":{"ha":840,"x_min":0,"x_max":0,"o":"m 201 53 b 244 14 201 25 218 14 l 257 14 b 415 26 282 17 388 25 b 436 29 418 26 432 29 b 489 50 451 33 476 46 b 565 206 558 67 563 147 l 579 613 l 574 615 b 675 606 607 607 642 606 b 810 738 769 606 807 646 b 813 896 810 742 811 853 l 813 903 b 764 936 813 925 779 933 l 125 936 b 85 933 122 936 93 933 b 28 913 71 932 28 932 l 35 636 b 92 607 35 613 76 607 l 240 607 l 240 586 b 215 396 235 556 217 425 b 201 129 213 372 201 185 b 200 90 201 126 200 100 b 201 53 200 86 201 58 z m 356 164 l 390 721 b 396 764 390 726 396 757 l 396 769 b 372 771 392 769 376 771 l 175 764 b 151 761 172 764 156 761 b 142 769 142 761 142 764 b 182 786 142 786 168 786 l 185 786 l 668 801 b 703 790 674 801 703 804 b 690 776 703 785 696 779 b 421 771 604 779 507 779 b 418 767 421 769 418 768 b 415 750 418 764 415 753 l 376 132 b 364 107 375 117 378 107 b 356 113 358 107 356 107 z "},"U":{"ha":906,"x_min":0,"x_max":0,"o":"m 29 583 b 167 168 36 432 85 292 b 176 156 167 165 175 157 b 489 17 264 63 358 17 b 786 278 638 17 739 149 b 875 913 840 421 886 756 b 863 924 875 918 868 924 b 665 933 790 935 739 933 l 569 933 b 550 911 556 932 550 922 b 464 363 553 517 506 363 b 401 478 418 363 407 438 b 400 486 401 481 400 483 b 392 572 399 506 392 567 l 392 649 b 394 856 392 718 394 786 b 349 936 394 897 394 926 l 318 936 b 39 896 58 918 42 910 b 29 735 38 872 29 758 b 28 660 29 732 28 678 b 29 583 28 649 29 594 z m 254 306 b 219 419 249 322 224 403 b 203 549 219 426 207 518 b 200 588 201 556 200 585 l 200 789 b 203 818 200 792 201 813 b 215 833 204 826 208 833 b 224 828 219 833 224 833 l 224 825 b 219 807 222 822 221 810 l 219 607 l 235 458 b 242 426 238 454 242 429 b 457 171 272 311 315 171 b 540 224 493 171 518 199 l 550 233 b 747 828 679 372 724 654 b 760 833 750 833 756 833 b 768 831 761 833 768 835 l 768 807 b 733 615 768 797 743 663 b 668 396 719 544 696 464 b 633 318 664 383 638 329 b 590 247 629 310 599 264 b 460 147 564 208 515 147 b 254 306 360 147 290 221 z "},"V":{"ha":1028,"x_min":0,"x_max":0,"o":"m 397 50 b 482 6 422 24 442 6 b 675 156 568 6 632 92 b 736 251 685 169 728 236 l 765 311 b 1000 919 982 858 1000 899 b 968 947 1000 929 976 947 b 854 951 921 950 896 951 l 825 951 l 649 936 b 607 896 626 935 611 919 l 532 522 l 529 519 l 411 907 b 381 944 410 914 396 944 l 326 944 b 43 924 64 924 49 924 l 42 924 b 28 908 32 924 28 918 b 33 871 28 894 29 881 l 146 533 l 304 194 b 339 132 307 186 333 142 z m 229 810 l 229 836 b 238 840 229 842 236 840 b 246 818 250 840 249 832 l 457 233 b 494 172 465 210 476 190 l 817 871 l 822 871 b 833 861 828 871 833 869 l 833 858 l 510 156 b 497 150 507 149 504 150 b 460 179 481 150 468 165 l 432 233 z "},"W":{"ha":1136,"x_min":0,"x_max":0,"o":"m 467 297 b 572 238 506 297 546 261 l 578 232 l 806 1 b 839 -15 813 -4 829 -15 b 860 0 849 -15 856 -7 l 881 51 l 932 206 l 1108 942 b 1100 946 1108 946 1101 946 b 881 933 989 940 932 933 l 874 933 b 749 890 839 933 760 935 l 690 444 b 619 558 661 479 647 521 l 535 660 b 451 722 521 678 479 722 l 447 722 b 350 588 408 685 368 611 l 346 582 b 340 865 343 676 346 771 b 251 940 338 925 308 940 l 43 940 b 35 921 40 929 35 922 b 28 894 33 917 28 899 l 28 804 l 79 96 b 88 56 79 94 86 65 b 131 6 93 38 104 6 b 178 29 144 6 164 19 l 182 32 b 221 65 192 40 217 64 l 425 276 b 467 297 436 286 453 297 z m 614 338 l 458 515 b 451 518 458 517 454 518 l 449 518 l 268 264 b 239 232 260 251 250 240 b 231 231 236 232 232 231 b 215 254 215 231 215 242 l 194 732 b 200 815 196 763 196 782 b 207 819 201 819 204 819 b 215 815 208 819 215 819 l 235 265 l 240 263 b 274 308 251 279 264 294 b 449 543 438 536 442 543 b 478 524 463 540 472 535 l 481 521 b 636 349 506 497 613 374 b 676 294 639 343 672 299 b 715 254 679 290 707 263 b 736 236 718 253 733 240 b 761 219 739 235 756 222 b 771 213 764 218 769 213 l 774 213 l 924 789 b 942 822 924 796 928 822 b 951 811 951 822 951 818 b 950 804 951 810 950 804 l 794 206 b 775 182 790 196 789 182 l 771 182 b 614 338 708 231 658 276 z "},"X":{"ha":1107,"x_min":0,"x_max":0,"o":"m 46 3 b 328 -10 142 8 235 -10 l 365 -10 b 413 25 386 -4 400 8 l 513 156 l 529 172 l 660 15 b 688 1 667 6 675 3 b 722 0 693 0 717 0 b 979 35 810 0 894 15 b 1022 72 1000 39 1022 47 b 1014 107 1022 86 1021 90 b 944 199 1007 121 950 190 l 822 404 l 819 411 b 857 475 825 421 850 465 b 860 482 857 476 860 481 l 878 526 l 1067 861 l 1071 876 b 839 957 1093 978 1086 949 l 824 957 b 714 915 783 957 736 956 l 617 746 l 613 746 b 586 792 608 753 589 785 l 494 926 b 467 950 486 935 478 946 l 449 957 b 261 971 385 967 325 971 l 204 971 b 42 967 186 974 49 963 b 28 956 33 967 28 963 b 32 944 28 950 28 949 l 111 832 l 328 482 b 46 3 42 14 40 8 z m 265 107 l 265 110 l 272 121 l 567 486 b 324 864 469 625 385 765 b 333 876 324 869 325 876 b 582 508 342 876 346 860 l 586 508 b 597 521 588 510 596 518 l 819 792 b 860 846 826 800 853 839 b 876 858 868 856 868 858 b 885 849 883 858 885 856 b 883 844 885 847 883 844 l 601 481 l 597 482 l 800 140 l 800 135 b 793 122 800 126 801 122 b 782 128 786 122 785 122 l 579 465 l 285 104 b 275 97 281 99 281 97 b 265 107 269 97 265 101 z "},"Y":{"ha":897,"x_min":0,"x_max":0,"o":"m 374 21 b 608 18 408 21 572 18 l 622 18 b 693 100 685 18 693 39 l 693 121 l 663 392 b 849 722 661 401 826 433 b 869 874 850 744 867 851 l 869 922 b 843 963 869 943 867 963 l 833 963 b 551 950 558 950 556 950 b 535 928 542 950 536 936 l 535 876 b 532 794 535 849 535 824 b 461 651 529 765 506 651 b 410 746 426 651 413 722 l 403 801 b 400 886 403 801 401 861 l 400 889 b 338 957 400 967 368 957 l 319 957 b 28 906 65 936 28 942 b 128 533 28 782 58 636 b 321 401 176 463 264 438 b 346 56 332 336 340 178 b 374 21 349 36 356 26 z m 208 833 b 224 868 208 844 206 868 b 222 854 224 868 222 863 b 450 504 222 786 247 504 b 714 804 615 504 671 675 b 750 896 724 835 732 896 b 760 883 757 896 760 890 l 760 876 b 690 674 743 810 713 735 b 468 482 653 576 571 493 b 464 478 467 482 465 479 l 464 475 b 508 158 499 296 508 203 b 500 121 508 131 504 121 b 489 139 494 121 490 131 l 443 478 b 376 493 443 479 383 490 b 208 833 231 547 208 694 z "},"Z":{"ha":779,"x_min":0,"x_max":0,"o":"m 696 0 b 726 100 731 0 726 103 l 731 268 l 731 286 b 474 315 731 307 728 326 b 751 771 657 586 750 744 l 751 889 b 718 972 751 906 742 972 b 85 956 435 972 263 968 b 29 929 33 953 33 951 b 28 921 29 926 28 924 l 28 697 b 71 657 35 671 43 657 l 421 663 l 82 228 b 39 106 53 176 39 136 b 289 1 39 17 146 1 b 549 6 368 1 458 6 b 696 0 599 6 649 4 z m 608 818 l 111 797 b 101 810 101 797 101 799 b 107 815 101 814 101 815 l 626 840 b 633 818 635 840 633 822 b 511 579 628 783 524 603 l 256 174 l 249 160 b 250 156 249 158 250 157 b 631 168 376 156 504 168 b 649 154 642 168 649 165 b 639 139 649 147 646 142 b 499 140 592 140 546 140 b 218 139 406 140 311 139 b 214 143 215 139 214 140 b 608 818 214 200 610 749 z "},"a":{"ha":825,"x_min":0,"x_max":0,"o":"m 500 -24 b 614 -31 517 -25 596 -31 l 647 -31 b 724 50 710 -31 707 -6 b 732 89 725 57 732 85 b 732 99 733 90 733 97 b 701 756 785 315 860 624 b 396 856 613 829 508 856 l 342 856 b 182 850 318 854 206 850 l 178 850 b 136 828 163 849 136 846 b 132 626 136 742 132 710 b 151 599 132 610 135 599 b 317 608 207 599 263 608 b 453 486 401 608 482 650 b 54 296 308 494 129 424 b 28 176 33 260 28 219 b 296 1 28 46 193 1 b 486 53 363 1 428 19 l 489 53 l 489 47 l 481 1 b 500 -24 481 -12 486 -22 z m 596 88 b 603 165 596 115 603 139 b 600 167 603 165 601 167 b 351 111 518 138 439 111 b 164 204 288 111 164 111 b 382 394 164 310 296 372 b 431 406 390 397 419 404 b 593 421 456 407 569 418 l 603 421 b 628 417 614 421 618 421 l 633 421 b 647 494 635 422 646 475 l 653 511 b 385 719 653 700 583 719 l 342 719 b 299 717 338 719 308 717 b 253 707 286 715 265 707 b 246 717 246 707 246 711 b 275 736 246 732 264 735 b 354 742 290 738 346 742 l 388 742 b 667 506 610 742 667 704 b 661 482 667 490 661 485 l 619 86 b 608 75 618 78 614 75 b 596 88 600 75 596 82 z m 189 206 b 351 135 189 133 297 135 l 363 135 b 560 175 431 135 494 153 b 606 199 571 181 606 192 l 628 389 l 628 394 b 617 397 628 394 619 397 b 601 399 615 397 604 399 b 588 397 597 399 589 397 l 415 381 b 351 364 403 379 361 367 b 189 206 283 336 189 293 z m 281 221 b 365 296 281 257 336 288 l 463 324 l 471 324 b 461 246 471 300 463 267 l 461 243 b 443 221 458 233 456 224 b 340 206 408 211 376 206 l 308 206 b 281 221 296 208 281 208 z "},"b":{"ha":911,"x_min":0,"x_max":0,"o":"m 28 13 b 78 -10 28 -8 64 -7 b 118 -12 88 -10 114 -12 b 328 0 300 -12 328 -15 b 324 25 328 7 324 15 b 328 79 324 44 325 57 l 331 82 l 333 82 b 514 42 392 56 450 42 b 882 417 711 42 901 139 b 608 613 871 578 746 613 b 419 579 543 613 481 603 l 419 588 l 489 915 l 489 918 b 440 946 489 942 457 946 l 376 950 b 132 940 196 960 136 963 l 32 39 b 28 13 29 29 28 22 z m 163 101 l 163 110 b 290 856 278 829 275 856 b 307 849 294 856 307 856 l 306 846 l 236 463 l 236 442 b 568 506 350 472 450 506 b 760 353 665 506 760 463 b 693 229 760 297 733 267 b 494 168 643 181 558 174 b 290 156 463 165 322 157 b 193 156 276 154 207 154 b 174 89 189 139 190 89 b 163 101 165 89 163 94 z m 199 183 l 224 179 l 358 179 b 556 199 388 179 526 194 b 739 351 633 213 739 256 b 568 483 739 443 651 483 b 239 417 454 483 350 446 b 229 417 239 417 229 419 z m 376 247 l 394 371 b 413 381 396 382 404 381 b 443 382 414 381 435 382 b 538 321 489 382 538 374 b 376 242 538 250 425 242 z "},"c":{"ha":836,"x_min":0,"x_max":0,"o":"m 28 314 b 360 18 28 115 174 18 b 786 335 532 18 738 171 l 783 339 l 529 360 l 469 360 b 411 294 457 315 433 294 b 369 357 389 294 369 317 b 440 503 369 469 422 503 b 508 440 475 503 508 451 l 507 439 l 807 514 b 808 531 807 518 808 525 b 807 536 808 532 808 535 b 468 749 765 678 646 749 b 28 314 222 749 28 542 z m 168 322 b 429 610 168 467 279 610 b 607 556 493 610 560 597 b 614 542 613 550 614 547 b 606 533 614 535 611 533 b 551 556 586 533 569 549 b 429 588 510 571 474 588 b 189 324 294 588 189 454 b 340 174 189 240 257 174 b 492 225 393 174 449 200 l 529 253 b 561 278 535 257 553 278 b 571 261 568 278 571 265 b 344 151 571 229 422 151 b 168 322 247 151 168 224 z "},"d":{"ha":929,"x_min":0,"x_max":0,"o":"m 513 76 b 538 13 513 57 507 15 l 817 38 b 857 92 847 40 854 68 l 857 103 b 879 983 890 875 924 979 l 817 989 b 638 979 815 989 676 976 b 567 936 600 978 579 978 l 563 881 b 551 724 558 831 557 772 b 538 726 546 725 542 726 b 29 375 306 747 51 624 b 339 74 13 200 181 88 l 507 78 z m 697 217 l 693 217 b 406 208 592 199 507 199 b 154 313 306 217 218 229 b 139 386 139 333 136 360 b 576 629 154 565 435 642 b 650 617 601 626 628 622 l 694 600 l 704 600 l 708 874 b 722 881 710 882 711 882 b 729 875 726 881 731 879 l 718 149 l 715 113 b 706 108 714 108 707 108 b 697 217 692 110 694 176 z m 161 385 b 210 288 157 346 186 313 b 386 231 249 247 325 236 b 592 224 457 225 522 213 l 672 236 l 699 243 l 703 578 b 664 592 703 583 669 590 l 631 601 b 607 606 628 601 608 604 l 574 608 b 161 385 447 619 175 551 z m 306 400 b 500 490 313 482 438 496 l 522 488 b 550 483 529 488 550 483 l 549 328 b 540 325 547 325 544 325 b 518 331 532 326 522 331 l 497 331 l 461 335 l 357 344 b 306 400 329 347 303 371 z "},"e":{"ha":800,"x_min":0,"x_max":0,"o":"m 28 346 b 599 -3 28 35 338 -3 b 690 42 642 -3 683 -11 l 714 235 l 714 265 b 633 283 714 289 649 283 b 386 281 550 283 479 281 b 363 297 378 281 363 286 l 363 339 b 383 342 363 339 378 342 b 706 372 494 351 593 349 b 771 550 771 385 771 526 b 511 882 776 715 696 882 b 28 346 239 882 28 601 z m 206 364 b 301 640 206 468 243 556 b 485 769 343 700 404 769 b 692 557 592 769 692 658 b 642 453 692 511 689 468 b 425 411 563 438 460 411 l 231 411 l 229 400 b 228 374 229 397 228 381 b 472 156 228 228 339 156 b 597 174 519 156 551 163 b 604 175 599 174 603 175 b 617 164 611 175 617 172 b 475 135 617 132 475 135 b 206 364 326 135 206 226 z m 486 750 b 321 631 418 750 357 685 b 233 439 281 572 232 481 l 233 433 l 417 433 b 638 474 488 433 568 457 b 665 600 676 483 675 576 b 486 750 647 672 561 750 z m 469 650 b 518 543 513 650 518 571 b 388 508 518 499 399 507 l 386 508 b 469 650 386 546 425 650 z "},"f":{"ha":815,"x_min":0,"x_max":0,"o":"m 133 -14 b 163 -31 138 -25 153 -31 l 246 -31 l 458 1 b 518 126 513 10 518 76 b 508 418 518 222 508 319 l 676 418 b 697 556 701 418 697 514 b 507 607 697 603 508 575 b 746 635 506 631 529 733 b 761 658 758 635 760 651 l 788 869 b 528 924 739 896 635 924 b 203 743 393 924 254 882 b 186 629 189 707 189 667 b 111 611 174 619 125 615 b 28 450 47 589 28 507 b 54 424 28 436 39 424 l 175 424 l 175 418 b 133 -14 142 278 133 129 z m 313 100 l 347 513 b 147 506 161 506 149 506 b 139 514 143 506 139 510 b 178 532 139 531 167 532 l 349 538 b 374 700 356 597 354 644 b 636 799 408 800 593 799 l 640 799 b 682 776 651 799 682 793 b 675 769 682 772 679 769 b 604 778 656 769 638 778 b 379 640 499 778 388 742 b 371 536 378 633 371 551 l 529 536 l 556 532 b 565 519 561 531 565 525 b 554 508 565 514 560 508 b 463 514 521 508 488 514 b 375 513 440 514 393 513 l 368 513 l 333 89 b 324 65 333 78 335 65 b 313 71 319 65 313 65 z "},"g":{"ha":901,"x_min":0,"x_max":0,"o":"m 172 7 b 268 -208 172 -61 238 -226 l 442 -176 l 451 -176 b 518 -162 454 -176 501 -165 b 790 44 632 -131 751 -76 b 871 461 844 217 857 311 b 869 482 869 467 869 475 b 874 638 869 547 874 608 b 633 769 874 769 846 769 l 600 769 b 496 754 569 769 496 769 l 496 686 b 28 346 264 694 28 576 b 300 158 28 190 172 158 b 488 188 367 158 424 171 l 497 188 b 208 39 451 82 306 63 b 172 7 190 35 172 28 z m 267 -101 b 404 -58 267 -92 374 -65 b 678 310 547 -25 665 176 l 658 310 b 400 272 572 294 486 272 b 149 397 311 272 149 308 b 297 560 149 471 240 529 b 529 625 376 601 440 625 b 678 607 585 621 665 619 b 708 596 694 607 715 588 l 715 667 b 728 678 715 676 719 678 b 739 668 738 678 739 678 b 736 654 739 663 739 658 l 708 353 l 676 203 b 385 -83 647 68 522 -50 b 286 -108 357 -90 289 -110 l 268 -108 b 267 -101 268 -108 267 -104 z m 169 394 b 339 296 169 339 293 300 b 618 319 476 296 547 310 b 669 335 626 321 661 333 b 675 333 672 333 674 333 b 688 358 688 333 688 349 l 706 554 b 579 603 715 603 599 597 l 464 603 b 169 394 385 588 169 493 z m 353 426 b 475 482 353 464 453 482 l 494 482 l 490 390 l 488 388 b 463 386 486 386 468 386 l 457 386 b 353 426 429 386 353 385 z "},"h":{"ha":801,"x_min":0,"x_max":0,"o":"m 28 18 b 71 -7 28 -3 50 -7 b 99 -6 81 -7 90 -6 b 339 0 135 -6 315 0 b 360 32 357 0 360 7 b 357 151 360 72 357 111 b 447 363 357 208 360 363 b 497 249 490 363 497 292 b 482 19 497 169 482 96 b 513 -1 482 6 490 -1 b 725 6 583 -1 653 6 b 765 83 771 13 763 42 b 774 465 765 243 774 369 b 583 672 757 604 736 672 b 364 574 478 672 418 626 l 361 574 l 389 896 l 389 928 b 340 946 389 942 346 946 b 69 904 293 946 56 919 l 28 25 z m 535 547 b 483 535 514 547 500 543 b 247 382 397 490 315 449 b 213 343 236 371 213 350 b 207 142 211 314 207 172 b 210 81 207 125 210 100 b 197 72 210 74 206 72 b 185 79 192 72 185 72 l 203 849 b 222 869 206 857 199 869 b 235 829 231 869 235 865 b 213 429 235 781 228 671 l 214 379 b 338 481 250 418 294 449 b 535 568 388 518 471 568 b 635 364 636 568 635 440 l 635 353 b 636 275 635 350 636 294 b 621 63 636 79 632 63 b 610 69 619 63 610 68 l 610 415 b 535 547 610 468 601 547 z "},"i":{"ha":418,"x_min":0,"x_max":0,"o":"m 28 100 l 28 56 b 174 25 28 17 136 28 l 222 25 b 325 35 256 25 293 26 b 390 646 346 44 390 474 b 269 690 390 685 350 690 b 88 668 236 690 88 700 z m 119 821 b 278 757 119 756 244 757 b 385 822 315 757 385 765 b 263 883 385 885 297 883 b 119 821 208 883 119 883 z m 228 589 b 242 619 228 597 231 619 b 249 613 247 619 249 618 b 244 593 249 606 244 600 b 199 99 210 165 221 99 b 192 103 196 99 192 99 z "},"j":{"ha":658,"x_min":0,"x_max":0,"o":"m 29 50 b 317 -143 76 -85 181 -143 b 631 417 615 -143 631 188 b 625 678 631 515 625 582 b 554 697 618 699 568 694 b 342 718 483 707 419 718 b 325 694 332 717 325 706 l 325 300 b 281 126 325 168 306 126 b 175 240 243 126 193 218 l 32 64 b 29 50 28 60 29 54 z m 160 56 b 165 71 160 67 158 71 b 308 10 194 71 250 10 b 425 157 374 10 414 104 l 457 319 l 489 593 b 501 614 489 606 492 614 b 511 607 507 614 511 613 l 511 583 l 474 293 b 453 188 474 285 458 211 b 308 -11 438 114 403 -11 b 160 56 261 -11 194 28 z m 319 828 b 514 761 319 767 469 761 b 529 758 515 761 524 758 b 626 811 560 758 626 767 b 464 888 626 863 507 888 b 319 828 429 888 319 878 z "},"k":{"ha":967,"x_min":0,"x_max":0,"o":"m 556 -21 b 713 -24 607 -21 660 -24 b 843 -14 758 -24 782 -22 b 869 29 868 -11 869 3 b 839 197 864 89 851 124 b 624 396 808 314 725 353 b 618 399 622 396 619 399 b 928 696 756 479 854 571 b 939 724 932 703 939 717 b 911 754 939 740 924 749 b 672 846 861 775 717 838 b 436 610 649 846 638 813 b 394 579 422 596 383 569 b 481 933 413 697 446 819 b 489 993 490 957 489 963 b 436 1013 475 1008 453 1011 b 203 1031 313 1025 243 1031 b 151 1013 161 1031 153 1024 b 28 6 36 17 28 15 b 36 -6 28 0 31 -6 b 315 -3 107 -6 215 -3 b 401 92 369 3 401 -10 b 404 147 401 115 401 139 b 403 240 404 163 403 228 b 436 242 408 240 431 242 b 544 13 551 232 535 58 b 556 -21 546 0 546 -11 z m 658 71 b 374 429 621 196 515 383 b 200 360 311 397 258 371 l 183 163 l 183 106 b 175 101 183 106 175 103 b 163 110 172 101 163 107 l 163 176 l 192 469 l 278 914 b 293 944 278 922 281 944 b 300 935 297 944 300 938 l 300 931 l 210 444 b 204 381 206 426 203 383 b 269 399 226 388 249 389 b 624 638 400 458 515 543 b 735 739 661 675 735 736 b 750 728 744 739 750 735 b 658 642 750 714 688 672 b 413 453 574 567 467 483 l 410 449 b 465 419 411 444 454 426 b 686 81 547 360 665 181 l 686 76 b 672 60 686 68 682 60 b 658 71 665 60 661 65 z "},"l":{"ha":451,"x_min":0,"x_max":0,"o":"m 28 18 b 190 -8 32 -21 154 -8 b 342 35 261 -8 338 -4 l 424 950 b 269 978 421 985 329 978 b 79 932 200 978 124 974 z m 244 894 b 256 913 244 900 246 913 b 263 896 263 913 263 903 l 263 883 b 204 104 211 171 214 104 b 201 106 204 104 203 104 b 193 110 201 106 193 108 z "},"m":{"ha":1078,"x_min":0,"x_max":0,"o":"m 28 15 b 36 6 28 11 31 6 l 224 11 b 338 135 292 13 329 31 b 347 304 338 151 346 288 b 358 394 350 329 357 392 l 361 400 b 460 242 375 367 429 242 b 686 493 539 242 608 421 b 711 507 690 497 704 508 b 713 499 711 506 713 500 l 713 429 l 686 76 l 686 40 b 692 31 686 38 689 32 b 729 32 704 32 717 32 b 989 22 817 32 894 22 b 992 28 992 22 992 25 l 992 32 b 1050 554 1039 181 1050 411 b 889 888 1050 665 1039 888 b 558 679 763 888 639 765 b 492 593 533 653 518 614 b 435 693 492 593 449 667 b 246 843 401 753 322 843 b 131 690 174 843 139 707 b 28 15 61 565 28 94 z m 172 165 l 199 489 b 218 608 199 492 213 576 b 258 660 221 633 231 660 b 381 567 306 660 357 590 l 490 415 l 497 424 b 786 724 586 543 669 633 b 876 771 808 740 844 771 b 917 654 925 771 917 678 l 917 622 l 865 121 b 854 113 864 115 858 111 b 849 115 853 114 849 115 l 849 147 l 897 640 b 876 750 897 676 901 750 b 686 614 838 750 746 671 b 515 417 619 551 564 488 b 496 389 508 408 507 389 b 475 403 489 389 478 399 l 378 539 b 258 640 349 567 301 640 b 233 589 240 640 235 601 l 189 175 l 189 96 b 182 92 189 93 185 92 b 172 103 176 92 172 96 z "},"n":{"ha":904,"x_min":0,"x_max":0,"o":"m 36 25 b 274 14 71 24 238 14 b 319 28 297 14 315 10 b 318 74 318 43 318 58 b 336 272 318 142 326 203 b 413 476 346 344 379 413 b 525 561 436 524 468 561 b 550 501 544 553 550 518 l 550 350 l 521 64 b 518 51 518 61 518 53 b 564 40 518 35 549 40 l 783 28 b 804 22 790 26 797 22 b 818 43 815 22 817 32 l 875 485 b 674 843 876 636 865 843 b 361 679 550 843 443 769 l 358 679 l 342 771 b 174 847 329 842 232 847 b 65 800 139 847 71 844 l 28 40 b 36 25 28 28 28 26 z m 642 96 l 642 103 l 675 544 b 617 700 674 561 686 700 b 396 581 515 700 438 601 l 233 421 b 190 356 232 419 190 363 l 188 329 l 179 99 b 168 92 179 92 172 92 b 160 99 164 92 160 92 l 182 736 b 194 742 182 742 190 742 b 199 728 200 742 199 733 b 190 392 199 617 190 503 b 225 439 200 411 221 439 l 390 603 b 621 721 425 638 529 721 b 694 556 692 721 694 607 b 693 528 694 549 693 529 l 661 99 b 650 85 661 93 657 85 b 642 96 643 85 642 90 z "},"o":{"ha":797,"x_min":0,"x_max":0,"o":"m 28 360 b 368 14 28 156 172 14 b 769 504 603 14 769 222 b 464 801 769 710 653 801 b 219 728 383 801 282 764 b 28 360 97 657 28 501 z m 179 343 b 356 664 179 474 224 618 b 471 689 393 676 431 689 b 647 496 578 689 647 603 b 453 136 647 342 592 200 b 376 121 426 124 403 121 b 179 343 253 121 179 218 z m 200 351 b 376 142 200 238 254 142 b 629 497 556 142 629 350 b 464 669 629 594 560 669 b 364 644 428 669 396 657 l 353 640 b 200 351 239 594 200 468 z m 303 389 b 421 522 303 453 356 522 b 501 454 458 522 501 499 b 374 311 501 376 453 311 b 303 389 329 311 303 346 z "},"p":{"ha":882,"x_min":0,"x_max":0,"o":"m 28 -150 b 324 -153 113 -150 268 -153 b 369 171 375 -153 365 78 l 375 171 b 533 144 428 156 479 144 b 854 461 714 144 854 269 b 631 807 854 601 799 807 b 394 711 536 807 474 758 l 393 717 b 403 797 393 744 403 771 b 372 829 403 817 403 829 b 110 768 297 829 99 783 z m 178 -50 l 178 -49 l 226 658 l 226 661 b 238 685 226 671 226 685 b 246 678 244 685 246 683 b 235 533 246 629 235 581 l 238 533 b 350 614 272 558 349 614 b 571 688 419 651 492 688 b 731 517 657 688 731 607 b 360 264 731 322 568 264 b 235 268 317 264 275 268 b 224 285 226 269 224 275 b 238 290 224 292 231 290 b 400 285 290 290 353 285 b 708 514 578 285 708 347 b 572 668 708 593 650 668 b 229 497 443 668 271 539 l 196 -54 b 188 -60 196 -60 190 -60 b 178 -50 182 -60 178 -56 z m 403 375 l 403 468 b 538 528 403 499 508 528 b 594 474 569 528 594 510 b 428 371 594 406 481 371 b 407 372 424 371 408 372 z "},"q":{"ha":811,"x_min":0,"x_max":0,"o":"m 375 -211 b 440 -237 375 -233 408 -237 b 519 -235 469 -237 504 -235 l 690 -215 b 735 -178 708 -214 733 -203 l 765 378 b 764 397 765 385 764 390 b 782 767 764 431 768 463 b 711 810 783 804 746 810 b 579 803 651 810 639 810 b 525 728 533 797 525 768 l 522 728 b 371 753 472 744 421 753 b 28 438 190 753 28 644 b 286 146 28 283 121 146 b 406 164 331 146 361 154 l 410 164 l 375 -210 z m 561 -119 l 572 319 b 435 268 558 296 467 272 b 392 267 428 268 399 267 b 151 432 283 267 151 296 b 397 643 151 551 293 633 l 458 643 b 579 622 499 643 539 640 l 579 628 b 593 685 579 653 579 685 b 601 492 600 685 601 588 b 572 -150 601 419 593 -150 b 561 -142 569 -150 561 -147 z m 574 326 b 572 332 574 328 574 331 l 579 594 b 407 622 579 622 442 622 l 403 622 b 175 432 306 613 175 543 b 394 288 175 310 294 288 b 513 311 435 288 475 293 b 561 335 525 317 549 335 b 572 332 565 335 569 335 l 572 319 b 574 326 574 322 574 324 z m 288 435 b 490 490 288 522 490 522 b 460 378 490 468 454 372 b 415 374 443 374 432 374 b 288 435 375 374 288 376 z "},"r":{"ha":756,"x_min":0,"x_max":0,"o":"m 28 42 b 60 29 33 31 49 29 b 328 47 151 32 275 7 l 376 367 b 719 558 397 504 610 522 b 726 765 719 638 729 713 b 689 844 724 808 714 838 b 351 664 517 813 447 754 b 357 758 354 697 358 732 b 289 800 356 792 344 800 l 93 776 b 81 750 81 774 81 764 b 83 722 82 742 83 732 b 29 64 32 151 29 75 b 28 42 28 61 29 44 z m 201 661 b 215 685 203 671 206 685 b 224 676 224 685 224 683 b 208 415 221 586 211 506 b 507 644 290 501 394 593 b 618 685 556 660 593 685 b 628 676 625 685 628 685 b 597 661 626 664 607 665 b 218 393 449 606 321 511 b 204 293 200 374 204 319 b 203 286 204 292 203 289 b 196 111 201 249 194 136 b 172 103 199 76 171 88 z "},"s":{"ha":800,"x_min":0,"x_max":0,"o":"m 28 54 b 242 14 28 28 179 14 b 449 67 294 14 413 25 b 517 428 539 172 556 281 b 731 694 485 551 610 624 l 756 711 b 524 821 836 758 600 821 b 178 522 351 821 178 665 b 213 360 178 465 213 415 b 165 213 213 308 200 257 l 151 192 l 142 179 b 28 54 100 125 74 92 z m 268 103 b 271 111 268 107 268 110 l 285 126 b 394 313 342 183 394 238 b 360 493 394 375 360 432 b 558 731 360 603 453 682 b 589 739 567 736 578 739 b 606 725 599 739 606 735 b 601 721 606 724 606 721 l 590 721 b 549 708 575 721 565 715 b 546 707 547 708 547 707 b 544 706 546 707 546 706 b 381 494 460 663 381 582 b 419 313 381 432 419 375 b 288 101 419 231 360 169 b 275 93 285 99 281 93 b 268 103 269 93 268 99 z "},"t":{"ha":704,"x_min":0,"x_max":0,"o":"m 104 221 b 451 -39 104 13 263 -39 b 635 8 501 -39 618 -25 b 643 211 635 113 643 182 b 624 236 643 236 636 236 l 622 236 b 401 336 389 182 399 306 l 401 347 b 449 521 407 390 428 464 l 449 524 b 454 528 449 528 450 528 b 558 524 488 528 522 524 b 601 543 576 522 592 524 l 672 679 b 676 696 675 683 676 694 b 638 728 676 717 656 726 l 525 735 l 596 913 b 599 928 597 918 599 925 b 296 969 599 969 396 939 b 268 935 276 969 268 949 l 208 764 b 203 756 208 761 207 754 l 108 769 b 28 588 49 769 28 676 b 151 544 28 536 97 561 l 151 539 b 104 221 129 438 104 326 z m 260 293 b 307 613 260 397 279 513 l 307 621 l 165 639 b 133 658 156 640 133 646 b 142 667 133 664 135 667 b 315 646 149 667 268 643 l 378 804 b 431 879 382 818 406 879 b 439 871 436 879 439 879 b 403 807 439 865 407 818 b 340 643 385 754 353 699 b 564 636 343 640 490 636 b 578 622 571 635 578 631 b 560 611 578 611 574 611 b 554 613 558 611 556 611 l 351 619 l 335 619 l 332 613 b 282 297 313 603 282 399 b 453 118 282 165 347 118 b 533 129 481 118 507 129 b 543 121 539 129 543 129 b 451 96 543 100 471 96 b 260 293 325 96 260 165 z "},"u":{"ha":918,"x_min":0,"x_max":0,"o":"m 489 139 b 553 32 494 97 488 32 b 749 53 618 32 683 42 b 778 82 763 54 774 68 l 889 761 b 836 786 893 789 850 785 b 647 815 807 790 668 814 b 628 803 639 815 629 811 b 413 313 596 639 542 435 b 350 279 397 297 372 279 b 335 313 336 279 335 289 b 447 754 335 342 336 360 b 450 772 447 758 451 772 b 428 794 450 785 439 794 l 289 794 b 213 804 267 797 218 804 l 210 804 b 185 794 201 804 189 804 l 89 581 b 28 274 58 511 28 378 b 244 35 28 139 99 35 b 485 139 340 35 417 75 z m 636 153 l 699 556 l 699 569 b 636 451 689 550 646 468 b 421 206 569 332 510 278 b 297 153 388 179 342 153 b 174 303 201 153 174 218 b 292 710 174 439 231 600 b 304 718 294 717 299 718 b 315 710 310 718 315 717 b 194 297 279 638 194 446 b 293 178 194 226 217 178 b 472 274 363 178 425 229 b 714 646 519 318 571 374 b 722 650 715 650 717 650 b 731 646 724 650 731 650 l 731 615 b 644 139 656 149 654 139 b 636 153 636 139 636 147 z "},"v":{"ha":914,"x_min":0,"x_max":0,"o":"m 28 754 b 51 649 28 754 46 660 b 104 489 61 613 99 501 l 293 63 b 324 35 299 50 310 35 b 444 118 367 35 413 94 b 590 279 475 149 568 250 l 879 704 b 886 721 883 713 886 711 b 819 747 886 743 835 747 l 603 772 l 538 772 b 526 764 533 772 526 767 l 504 722 l 385 449 b 364 524 376 456 369 511 l 331 728 b 154 778 322 781 214 779 l 69 778 b 28 754 51 778 28 775 z m 175 672 b 182 685 175 679 175 685 b 189 679 185 685 188 685 l 367 213 l 649 657 b 663 669 650 660 660 669 b 674 651 674 669 674 657 l 457 326 l 378 192 b 365 182 375 185 371 182 b 347 197 358 182 350 190 l 175 665 z "},"w":{"ha":1240,"x_min":0,"x_max":0,"o":"m 53 425 l 107 60 b 136 26 110 43 119 26 b 264 111 186 26 243 100 l 428 276 l 429 278 b 519 336 446 294 488 336 b 549 324 531 336 540 332 b 754 132 625 269 692 194 b 851 32 790 85 836 32 b 908 93 879 32 899 72 b 1213 731 1199 724 1213 717 b 1039 772 1213 760 1072 772 l 1033 772 b 903 731 999 772 918 772 l 793 428 b 740 496 778 450 757 479 l 572 660 b 521 679 560 672 540 679 b 428 631 488 679 449 651 l 340 543 l 324 775 b 264 822 321 815 301 822 b 39 803 188 822 114 803 b 28 771 29 797 28 785 l 28 746 z m 522 521 b 513 524 518 524 515 524 b 478 501 499 524 485 507 l 215 226 l 207 226 b 197 233 203 226 197 228 l 168 660 l 168 722 b 176 728 168 728 174 728 b 185 726 178 728 183 728 l 218 260 l 478 531 b 513 547 485 539 500 547 b 622 442 547 547 599 481 b 825 233 686 368 746 292 l 829 238 b 994 651 871 381 928 518 b 1004 658 994 656 997 658 b 1013 643 1011 658 1013 649 l 889 351 l 844 211 b 832 206 840 206 836 206 l 822 206 b 522 521 707 294 617 426 z "},"x":{"ha":950,"x_min":0,"x_max":0,"o":"m 593 32 b 610 26 597 28 603 26 b 883 65 675 26 789 50 b 921 108 910 72 921 79 b 889 193 921 136 900 168 l 750 414 b 746 426 746 419 749 419 l 881 604 b 922 699 900 629 922 664 b 824 749 922 732 842 749 l 650 775 b 543 682 610 775 576 719 l 542 682 b 489 735 532 689 497 726 b 288 786 443 781 369 786 b 104 789 286 786 153 789 b 56 765 90 789 56 785 l 310 426 l 44 147 b 28 104 36 136 28 118 b 286 19 29 64 53 53 b 460 189 317 19 365 97 b 593 32 501 124 567 53 z m 636 208 l 501 406 b 496 410 499 408 499 411 l 281 218 l 229 164 b 222 160 226 161 224 160 b 215 169 215 160 215 165 b 217 175 215 172 217 175 l 233 197 l 475 421 b 481 429 481 426 482 426 l 365 582 b 286 667 357 599 319 633 b 294 678 285 672 289 678 b 314 668 301 678 310 672 l 379 599 l 494 447 b 500 444 496 446 499 444 l 744 674 b 751 664 746 674 751 668 b 742 646 751 656 750 657 l 513 425 b 592 304 544 393 558 347 b 701 149 617 271 700 176 b 692 142 701 142 699 142 b 636 208 676 142 650 190 z "},"y":{"ha":929,"x_min":0,"x_max":0,"o":"m 88 -169 b 172 -203 88 -199 133 -203 b 233 -201 206 -203 226 -201 b 401 -157 278 -201 356 -200 l 529 181 b 883 642 735 236 839 399 b 901 750 888 668 901 743 l 901 778 b 892 783 901 781 892 783 b 586 760 868 779 756 776 b 563 739 575 757 565 753 l 503 503 b 414 393 493 464 454 393 b 368 494 367 393 368 465 l 368 500 b 390 719 368 557 390 700 l 390 721 b 353 765 389 744 375 761 b 300 763 335 763 317 763 b 206 765 267 763 235 765 b 58 661 139 765 86 751 b 28 454 38 594 28 525 b 236 193 28 293 110 231 l 236 186 b 88 -169 97 -124 88 -167 z m 174 468 b 172 493 172 475 172 492 b 211 661 172 558 190 661 b 215 647 215 661 215 654 b 190 493 199 599 190 546 b 372 293 190 357 260 293 b 625 451 464 293 581 360 l 738 682 b 746 690 738 683 743 690 b 757 682 753 690 757 688 b 756 675 757 679 756 675 l 663 478 b 374 274 607 361 497 274 b 174 468 261 274 176 335 z m 247 -122 l 247 -117 l 368 258 b 378 265 369 265 372 265 b 385 249 385 265 385 261 l 267 -121 b 256 -132 265 -128 261 -131 b 247 -122 247 -132 247 -128 z "},"z":{"ha":821,"x_min":0,"x_max":0,"o":"m 744 -40 b 764 -17 758 -40 764 -31 l 793 224 l 792 253 b 776 261 792 257 781 261 l 775 261 b 643 267 731 269 674 267 b 532 253 606 267 571 251 b 578 292 539 261 568 283 b 579 293 579 292 579 293 b 740 406 596 303 726 392 b 769 465 758 415 769 429 l 769 467 b 764 593 769 476 772 553 l 761 604 b 760 614 761 607 760 611 b 686 788 742 707 733 749 l 679 790 l 665 790 b 42 792 535 790 189 794 b 92 489 14 715 28 515 l 444 535 l 474 536 b 46 236 322 451 176 356 b 35 208 39 229 35 210 l 35 201 l 65 -22 z m 279 118 l 182 113 b 178 124 178 113 178 124 b 192 144 178 136 192 129 l 215 172 l 432 375 l 644 544 b 651 556 651 549 651 550 b 631 650 651 563 636 650 l 622 650 b 139 629 219 628 140 633 b 128 640 132 628 128 633 b 139 651 128 646 135 651 l 614 675 b 672 550 685 694 672 603 l 672 544 b 663 529 672 538 669 536 l 424 340 l 213 140 l 217 136 l 651 131 b 660 118 657 131 660 124 b 640 100 660 106 649 100 b 279 118 636 100 633 101 z "},"":{"ha":793,"x_min":0,"x_max":0,"o":"m 33 19 b 156 3 44 3 100 3 b 306 76 208 3 306 7 b 318 300 310 151 311 225 l 450 300 l 450 57 b 569 14 450 19 522 14 b 726 19 629 14 672 19 b 744 17 732 19 738 17 b 765 383 761 17 765 365 b 756 593 765 415 756 563 b 428 997 756 864 594 997 b 63 626 265 997 97 872 b 28 157 40 468 28 315 b 33 19 28 111 28 67 z m 594 424 l 550 424 b 250 404 456 414 350 404 b 169 407 222 404 196 406 l 164 396 l 164 132 b 168 113 167 124 168 121 b 160 106 168 107 165 106 b 144 140 146 106 144 132 l 144 375 b 161 528 144 382 156 489 b 500 903 185 718 282 903 b 606 689 590 882 604 710 l 625 92 b 617 88 624 88 617 88 b 606 94 613 88 606 88 z m 169 432 b 172 426 169 429 171 426 l 318 426 l 594 447 b 574 756 594 550 585 711 b 475 883 565 810 538 883 b 169 432 249 883 190 626 z m 417 782 b 442 700 439 782 442 735 b 435 532 442 607 444 597 b 336 513 435 514 353 513 b 338 606 336 526 338 593 b 417 782 339 639 363 782 z m 481 1097 b 475 1093 481 1094 481 1093 b 471 1096 474 1093 471 1093 b 371 1194 436 1131 371 1186 b 378 1200 371 1199 375 1200 b 428 1161 386 1200 417 1171 b 481 1097 438 1149 481 1101 z m 581 1074 b 571 1082 581 1078 579 1079 l 465 1193 b 415 1232 449 1210 442 1232 b 283 1200 374 1232 283 1215 b 288 1190 283 1196 285 1194 l 413 1076 b 569 1065 426 1067 529 1065 b 581 1074 578 1065 581 1068 z "},"":{"ha":793,"x_min":0,"x_max":0,"o":"m 33 19 b 156 3 44 3 100 3 b 306 76 208 3 306 7 b 318 300 310 151 311 225 l 450 300 l 450 57 b 569 14 450 19 522 14 b 726 19 629 14 672 19 b 744 17 732 19 738 17 b 765 383 761 17 765 365 b 756 593 765 415 756 563 b 428 997 756 864 594 997 b 63 626 265 997 97 872 b 28 157 40 468 28 315 b 33 19 28 111 28 67 z m 594 424 l 550 424 b 250 404 456 414 350 404 b 169 407 222 404 196 406 l 164 396 l 164 132 b 168 113 167 124 168 121 b 160 106 168 107 165 106 b 144 140 146 106 144 132 l 144 375 b 161 528 144 382 156 489 b 500 903 185 718 282 903 b 606 689 590 882 604 710 l 625 92 b 617 88 624 88 617 88 b 606 94 613 88 606 88 z m 169 432 b 172 426 169 429 171 426 l 318 426 l 594 447 b 574 756 594 550 585 711 b 475 883 565 810 538 883 b 169 432 249 883 190 626 z m 417 782 b 442 700 439 782 442 735 b 435 532 442 607 444 597 b 336 513 435 514 353 513 b 338 606 336 526 338 593 b 417 782 339 639 363 782 z m 283 1074 b 294 1065 283 1068 286 1065 b 451 1076 335 1065 438 1067 l 576 1190 b 581 1200 579 1194 581 1196 b 449 1232 581 1215 490 1232 b 399 1193 422 1232 415 1210 l 293 1082 b 283 1074 285 1079 283 1078 z m 383 1097 b 436 1161 383 1101 426 1149 b 486 1200 447 1171 478 1200 b 493 1194 489 1200 493 1199 b 393 1096 493 1186 428 1131 b 389 1093 393 1093 390 1093 b 383 1097 383 1093 383 1094 z "},"":{"ha":793,"x_min":0,"x_max":0,"o":"m 33 19 b 156 3 44 3 100 3 b 306 76 208 3 306 7 b 318 300 310 151 311 225 l 450 300 l 450 57 b 569 14 450 19 522 14 b 726 19 629 14 672 19 b 744 17 732 19 738 17 b 765 383 761 17 765 365 b 756 593 765 415 756 563 b 428 997 756 864 594 997 b 63 626 265 997 97 872 b 28 157 40 468 28 315 b 33 19 28 111 28 67 z m 594 424 l 550 424 b 250 404 456 414 350 404 b 169 407 222 404 196 406 l 164 396 l 164 132 b 168 113 167 124 168 121 b 160 106 168 107 165 106 b 144 140 146 106 144 132 l 144 375 b 161 528 144 382 156 489 b 500 903 185 718 282 903 b 606 689 590 882 604 710 l 625 92 b 617 88 624 88 617 88 b 606 94 613 88 606 88 z m 169 432 b 172 426 169 429 171 426 l 318 426 l 594 447 b 574 756 594 550 585 711 b 475 883 565 810 538 883 b 169 432 249 883 190 626 z m 208 1061 b 321 1046 208 1038 292 1046 b 411 1143 383 1046 393 1122 b 540 1047 442 1143 479 1047 b 633 1067 551 1047 633 1050 b 613 1104 633 1079 617 1097 l 613 1107 b 578 1157 613 1111 592 1139 l 481 1272 b 414 1314 465 1290 440 1314 b 376 1292 399 1314 386 1303 l 208 1064 z m 417 782 b 442 700 439 782 442 735 b 435 532 442 607 444 597 b 336 513 435 514 353 513 b 338 606 336 526 338 593 b 417 782 339 639 363 782 z m 296 1096 b 304 1113 296 1101 301 1108 l 406 1244 b 414 1249 407 1247 410 1249 b 546 1110 443 1249 504 1156 b 539 1103 546 1107 543 1103 b 415 1232 535 1101 435 1219 l 414 1231 l 313 1100 b 301 1090 310 1097 307 1090 b 296 1096 299 1090 296 1093 z "},"":{"ha":793,"x_min":0,"x_max":0,"o":"m 33 19 b 156 3 44 3 100 3 b 306 76 208 3 306 7 b 318 300 310 151 311 225 l 450 300 l 450 57 b 569 14 450 19 522 14 b 726 19 629 14 672 19 b 744 17 732 19 738 17 b 765 383 761 17 765 365 b 756 593 765 415 756 563 b 428 997 756 864 594 997 b 63 626 265 997 97 872 b 28 157 40 468 28 315 b 33 19 28 111 28 67 z m 594 424 l 550 424 b 250 404 456 414 350 404 b 169 407 222 404 196 406 l 164 396 l 164 132 b 168 113 167 124 168 121 b 160 106 168 107 165 106 b 144 140 146 106 144 132 l 144 375 b 161 528 144 382 156 489 b 500 903 185 718 282 903 b 606 689 590 882 604 710 l 625 92 b 617 88 624 88 617 88 b 606 94 613 88 606 88 z m 169 432 b 172 426 169 429 171 426 l 318 426 l 594 447 b 574 756 594 550 585 711 b 475 883 565 810 538 883 b 169 432 249 883 190 626 z m 417 782 b 442 700 439 782 442 735 b 435 532 442 607 444 597 b 336 513 435 514 353 513 b 338 606 336 526 338 593 b 417 782 339 639 363 782 z m 338 1121 b 389 1089 360 1121 372 1100 b 489 1057 419 1067 451 1057 b 633 1174 567 1057 606 1121 b 582 1236 633 1181 603 1236 b 493 1168 558 1236 539 1169 b 461 1178 482 1168 469 1171 l 389 1225 b 332 1242 371 1236 351 1242 b 193 1093 244 1242 203 1168 b 281 1056 215 1083 261 1056 b 338 1121 301 1056 303 1121 z m 329 1178 b 256 1115 290 1178 261 1117 b 249 1121 251 1115 249 1118 b 329 1190 249 1143 296 1190 b 481 1125 394 1190 422 1125 b 524 1139 494 1126 511 1129 l 588 1181 b 592 1182 588 1182 590 1182 b 599 1178 594 1182 599 1182 b 479 1113 599 1164 519 1113 b 329 1178 421 1113 389 1178 z "},"":{"ha":793,"x_min":0,"x_max":0,"o":"m 33 19 b 156 3 44 3 100 3 b 306 76 208 3 306 7 b 318 300 310 151 311 225 l 450 300 l 450 57 b 569 14 450 19 522 14 b 726 19 629 14 672 19 b 744 17 732 19 738 17 b 765 383 761 17 765 365 b 756 593 765 415 756 563 b 428 997 756 864 594 997 b 63 626 265 997 97 872 b 28 157 40 468 28 315 b 33 19 28 111 28 67 z m 594 424 l 550 424 b 250 404 456 414 350 404 b 169 407 222 404 196 406 l 164 396 l 164 132 b 168 113 167 124 168 121 b 160 106 168 107 165 106 b 144 140 146 106 144 132 l 144 375 b 161 528 144 382 156 489 b 500 903 185 718 282 903 b 606 689 590 882 604 710 l 625 92 b 617 88 624 88 617 88 b 606 94 613 88 606 88 z m 169 432 b 172 426 169 429 171 426 l 318 426 l 594 447 b 574 756 594 550 585 711 b 475 883 565 810 538 883 b 169 432 249 883 190 626 z m 417 782 b 442 700 439 782 442 735 b 435 532 442 607 444 597 b 336 513 435 514 353 513 b 338 606 336 526 338 593 b 417 782 339 639 363 782 z m 442 1122 b 532 1060 444 1075 494 1058 b 625 1129 565 1061 628 1082 b 503 1201 621 1199 550 1204 b 442 1122 467 1200 440 1160 z m 206 1115 b 399 1132 210 1028 403 1046 b 301 1201 396 1182 321 1203 b 206 1115 263 1200 203 1163 z "},"":{"ha":793,"x_min":0,"x_max":0,"o":"m 33 19 b 156 3 44 3 100 3 b 306 76 208 3 306 7 b 318 300 310 151 311 225 l 450 300 l 450 57 b 569 14 450 19 522 14 b 726 19 629 14 672 19 b 744 17 732 19 738 17 b 765 383 761 17 765 365 b 756 593 765 415 756 563 b 428 997 756 864 594 997 b 63 626 265 997 97 872 b 28 157 40 468 28 315 b 33 19 28 111 28 67 z m 594 424 l 550 424 b 250 404 456 414 350 404 b 169 407 222 404 196 406 l 164 396 l 164 132 b 168 113 167 124 168 121 b 160 106 168 107 165 106 b 144 140 146 106 144 132 l 144 375 b 161 528 144 382 156 489 b 500 903 185 718 282 903 b 606 689 590 882 604 710 l 625 92 b 617 88 624 88 617 88 b 606 94 613 88 606 88 z m 169 432 b 172 426 169 429 171 426 l 318 426 l 594 447 b 574 756 594 550 585 711 b 475 883 565 810 538 883 b 169 432 249 883 190 626 z m 275 1186 b 408 1058 275 1114 338 1058 b 576 1224 526 1058 576 1139 b 424 1347 576 1307 500 1347 b 275 1186 346 1347 275 1258 z m 325 1186 b 440 1303 325 1244 374 1303 b 517 1225 472 1303 517 1258 b 421 1111 517 1165 486 1111 b 325 1186 375 1111 325 1136 z m 417 782 b 442 700 439 782 442 735 b 435 532 442 607 444 597 b 336 513 435 514 353 513 b 338 606 336 526 338 593 b 417 782 339 639 363 782 z m 339 1186 b 421 1125 339 1146 385 1125 b 501 1225 475 1125 501 1175 b 424 1288 501 1261 457 1288 b 339 1186 379 1288 339 1229 z m 388 1199 b 422 1239 388 1217 403 1239 b 439 1206 435 1239 439 1214 b 400 1174 439 1181 424 1174 l 397 1176 b 388 1199 389 1185 388 1186 z "},"":{"ha":1107,"x_min":0,"x_max":0,"o":"m 33 19 b 156 3 44 3 100 3 b 306 76 208 3 306 7 b 318 300 310 151 311 225 l 450 300 l 450 204 b 449 161 449 186 449 169 b 450 78 449 149 449 90 l 450 57 b 453 43 450 51 451 47 b 514 -11 460 13 476 -11 b 889 6 611 -11 744 0 b 975 63 929 7 969 18 l 993 219 l 993 251 b 967 271 993 260 975 271 l 764 278 l 764 303 l 847 317 b 897 514 879 322 897 456 b 864 531 897 533 878 531 b 779 528 836 531 807 528 b 767 538 771 528 767 529 b 789 638 767 565 769 638 b 843 635 807 638 824 635 l 993 649 b 1079 858 1079 657 1079 843 b 886 929 1079 931 931 929 l 879 929 b 785 931 867 929 792 931 b 626 922 738 931 676 928 b 428 997 569 972 499 997 b 63 626 265 997 97 872 b 28 157 40 468 28 315 b 33 19 28 111 28 67 z m 435 411 l 432 411 b 250 404 372 407 310 404 b 169 407 222 404 196 406 l 164 396 l 164 132 b 168 113 167 124 168 121 b 160 106 168 107 165 106 b 144 140 146 106 144 132 l 144 375 b 161 528 144 382 156 489 b 500 903 185 718 278 922 b 529 889 511 900 519 894 b 582 792 556 857 572 826 b 964 806 604 792 915 801 b 969 797 967 804 969 800 b 936 785 969 785 944 785 l 935 785 b 585 769 708 769 643 774 b 586 763 585 767 586 765 b 601 663 592 732 597 696 b 618 447 611 590 615 519 b 835 458 690 451 763 457 b 835 431 854 456 854 433 b 619 419 763 429 692 425 b 622 128 622 322 622 224 b 869 139 703 126 788 139 b 889 129 876 139 889 139 b 622 100 836 103 692 104 b 592 418 585 74 613 340 b 435 411 539 414 488 411 z m 492 881 b 475 883 486 882 481 883 b 169 432 249 883 190 626 b 172 426 169 429 171 426 l 318 426 l 426 435 l 435 439 b 590 446 486 439 539 442 b 575 660 588 517 583 589 b 560 771 571 700 568 738 b 558 779 558 774 557 776 b 492 881 549 815 531 847 z m 417 782 b 442 700 439 782 442 735 b 435 532 442 607 444 597 b 336 513 435 514 353 513 b 338 606 336 526 338 593 b 417 782 339 639 363 782 z "},"":{"ha":907,"x_min":0,"x_max":0,"o":"m 243 -272 b 249 -287 243 -276 247 -285 l 304 -381 b 311 -390 304 -382 308 -389 b 369 -362 331 -390 357 -362 b 524 -167 439 -315 524 -253 b 457 -118 524 -128 496 -119 l 472 11 l 481 11 b 840 271 636 11 786 128 b 481 381 840 292 492 378 b 411 301 481 343 447 301 b 358 401 383 301 358 328 b 489 654 358 567 438 654 b 550 551 524 654 550 621 l 550 542 b 879 585 619 549 879 560 b 858 676 879 613 868 647 b 854 693 858 682 854 688 b 524 938 810 839 675 938 b 28 451 221 938 28 717 b 29 419 28 442 28 431 b 318 11 29 243 103 26 b 313 -126 314 -36 313 -78 b 329 -146 321 -132 321 -142 b 390 -192 350 -158 390 -158 b 268 -262 390 -243 269 -262 b 243 -272 261 -267 243 -262 z m 333 -311 l 333 -308 l 418 -233 b 446 -189 429 -222 446 -204 b 356 -110 446 -147 356 -118 b 383 104 360 -37 379 33 l 383 107 b 182 392 246 122 182 264 b 483 785 182 567 286 785 b 699 675 574 785 647 749 b 693 661 699 665 700 661 b 665 686 681 661 672 679 b 483 764 615 740 557 764 b 203 390 297 764 203 551 b 407 129 203 269 271 129 b 561 214 478 129 518 171 l 569 222 b 578 225 572 225 574 225 b 585 207 586 225 585 213 b 410 106 539 157 481 106 b 411 103 410 104 411 103 b 383 -107 407 32 388 -36 b 458 -189 393 -121 458 -142 b 432 -236 458 -206 446 -224 l 353 -308 b 340 -317 349 -308 342 -317 b 333 -311 335 -317 333 -315 z "},"":{"ha":686,"x_min":0,"x_max":0,"o":"m 29 83 b 93 -6 31 40 43 -6 b 468 11 190 -6 324 6 b 554 68 508 13 549 24 l 572 225 l 572 257 b 546 276 572 265 554 276 l 322 285 l 322 306 l 426 322 b 476 519 458 328 476 461 b 443 536 476 539 457 536 b 358 533 415 536 386 533 b 346 543 350 533 346 535 b 368 643 346 571 349 643 b 422 640 386 643 403 640 l 572 654 b 658 864 658 663 658 849 b 465 935 658 936 510 935 l 458 935 b 364 936 446 935 371 936 b 113 901 275 936 136 929 b 28 167 74 856 28 253 b 29 83 28 154 28 96 z m 533 1004 b 524 1013 533 1008 532 1010 l 418 1124 b 368 1163 401 1140 394 1163 b 236 1131 326 1163 236 1146 b 240 1121 236 1126 238 1125 l 365 1007 b 522 996 379 997 482 996 b 533 1004 531 996 533 999 z m 188 121 l 188 196 l 218 582 l 253 799 b 264 808 254 806 258 808 b 308 801 268 808 292 801 b 543 811 388 801 464 811 b 549 803 546 810 549 806 b 515 790 549 790 524 790 l 514 790 l 269 779 l 222 413 l 207 175 l 207 133 b 449 144 288 133 368 144 b 468 135 456 144 468 144 b 211 111 468 115 217 111 l 196 111 z m 242 415 b 249 424 242 419 240 424 l 388 426 b 396 417 392 426 396 421 b 388 407 396 411 392 407 l 249 407 b 242 415 240 407 242 410 z m 433 1028 b 428 1024 433 1025 433 1024 b 424 1026 426 1024 424 1024 b 324 1125 389 1061 324 1117 b 331 1131 324 1129 328 1131 b 381 1092 339 1131 369 1101 b 433 1028 390 1079 433 1032 z "},"":{"ha":686,"x_min":0,"x_max":0,"o":"m 29 83 b 93 -6 31 40 43 -6 b 468 11 190 -6 324 6 b 554 68 508 13 549 24 l 572 225 l 572 257 b 546 276 572 265 554 276 l 322 285 l 322 306 l 426 322 b 476 519 458 328 476 461 b 443 536 476 539 457 536 b 358 533 415 536 386 533 b 346 543 350 533 346 535 b 368 643 346 571 349 643 b 422 640 386 643 403 640 l 572 654 b 658 864 658 663 658 849 b 465 935 658 936 510 935 l 458 935 b 364 936 446 935 371 936 b 113 901 275 936 136 929 b 28 167 74 856 28 253 b 29 83 28 154 28 96 z m 236 1004 b 247 996 236 999 239 996 b 404 1007 288 996 390 997 l 529 1121 b 533 1131 532 1125 533 1126 b 401 1163 533 1146 443 1163 b 351 1124 375 1163 368 1140 l 246 1013 b 236 1004 238 1010 236 1008 z m 188 121 l 188 196 l 218 582 l 253 799 b 264 808 254 806 258 808 b 308 801 268 808 292 801 b 543 811 388 801 464 811 b 549 803 546 810 549 806 b 515 790 549 790 524 790 l 514 790 l 269 779 l 222 413 l 207 175 l 207 133 b 449 144 288 133 368 144 b 468 135 456 144 468 144 b 211 111 468 115 217 111 l 196 111 z m 242 415 b 249 424 242 419 240 424 l 388 426 b 396 417 392 426 396 421 b 388 407 396 411 392 407 l 249 407 b 242 415 240 407 242 410 z m 336 1028 b 389 1092 336 1032 379 1079 b 439 1131 400 1101 431 1131 b 446 1125 442 1131 446 1129 b 346 1026 446 1117 381 1061 b 342 1024 346 1024 343 1024 b 336 1028 336 1024 336 1025 z "},"":{"ha":686,"x_min":0,"x_max":0,"o":"m 29 83 b 93 -6 31 40 43 -6 b 468 11 190 -6 324 6 b 554 68 508 13 549 24 l 572 225 l 572 257 b 546 276 572 265 554 276 l 322 285 l 322 306 l 426 322 b 476 519 458 328 476 461 b 443 536 476 539 457 536 b 358 533 415 536 386 533 b 346 543 350 533 346 535 b 368 643 346 571 349 643 b 422 640 386 643 403 640 l 572 654 b 658 864 658 663 658 849 b 465 935 658 936 510 935 l 458 935 b 364 936 446 935 371 936 b 113 901 275 936 136 929 b 28 167 74 856 28 253 b 29 83 28 154 28 96 z m 161 992 b 274 976 161 968 244 976 b 364 1074 336 976 346 1053 b 493 978 394 1074 432 978 b 586 997 504 978 586 981 b 565 1035 586 1010 569 1028 l 565 1038 b 531 1088 565 1042 544 1069 l 433 1203 b 367 1244 418 1221 393 1244 b 329 1222 351 1244 339 1233 l 161 994 z m 188 121 l 188 196 l 218 582 l 253 799 b 264 808 254 806 258 808 b 308 801 268 808 292 801 b 543 811 388 801 464 811 b 549 803 546 810 549 806 b 515 790 549 790 524 790 l 514 790 l 269 779 l 222 413 l 207 175 l 207 133 b 449 144 288 133 368 144 b 468 135 456 144 468 144 b 211 111 468 115 217 111 l 196 111 z m 249 1026 b 257 1043 249 1032 254 1039 l 358 1175 b 367 1179 360 1178 363 1179 b 499 1040 396 1179 457 1086 b 492 1033 499 1038 496 1033 b 368 1163 488 1032 388 1150 l 367 1161 l 265 1031 b 254 1021 263 1028 260 1021 b 249 1026 251 1021 249 1024 z m 242 415 b 249 424 242 419 240 424 l 388 426 b 396 417 392 426 396 421 b 388 407 396 411 392 407 l 249 407 b 242 415 240 407 242 410 z "},"":{"ha":686,"x_min":0,"x_max":0,"o":"m 29 83 b 93 -6 31 40 43 -6 b 468 11 190 -6 324 6 b 554 68 508 13 549 24 l 572 225 l 572 257 b 546 276 572 265 554 276 l 322 285 l 322 306 l 426 322 b 476 519 458 328 476 461 b 443 536 476 539 457 536 b 358 533 415 536 386 533 b 346 543 350 533 346 535 b 368 643 346 571 349 643 b 422 640 386 643 403 640 l 572 654 b 658 864 658 663 658 849 b 465 935 658 936 510 935 l 458 935 b 364 936 446 935 371 936 b 113 901 275 936 136 929 b 28 167 74 856 28 253 b 29 83 28 154 28 96 z m 188 121 l 188 196 l 218 582 l 253 799 b 264 808 254 806 258 808 b 308 801 268 808 292 801 b 543 811 388 801 464 811 b 549 803 546 810 549 806 b 515 790 549 790 524 790 l 514 790 l 269 779 l 222 413 l 207 175 l 207 133 b 449 144 288 133 368 144 b 468 135 456 144 468 144 b 211 111 468 115 217 111 l 196 111 z m 158 1046 b 351 1063 163 958 356 976 b 254 1132 349 1113 274 1133 b 158 1046 215 1131 156 1093 z m 394 1053 b 485 990 397 1006 447 989 b 578 1060 518 992 581 1013 b 456 1132 574 1129 503 1135 b 394 1053 419 1131 393 1090 z m 242 415 b 249 424 242 419 240 424 l 388 426 b 396 417 392 426 396 421 b 388 407 396 411 392 407 l 249 407 b 242 415 240 407 242 410 z "},"":{"ha":422,"x_min":0,"x_max":0,"o":"m 29 47 b 83 13 33 18 58 15 l 86 13 b 144 11 97 13 138 11 b 188 10 147 11 178 10 b 226 11 197 10 224 11 b 306 17 239 11 294 15 b 375 68 343 21 371 28 b 381 122 376 76 381 114 b 393 472 383 175 392 419 b 394 581 393 478 394 554 b 393 688 394 607 393 683 b 385 914 393 721 386 879 b 321 943 383 940 338 943 l 251 943 b 93 938 199 943 146 938 l 68 938 b 58 940 65 940 63 940 b 47 932 53 940 51 939 b 29 444 43 858 31 518 b 28 246 29 435 28 296 b 29 47 28 215 29 76 z m 358 1024 b 349 1032 358 1028 357 1029 l 243 1143 b 193 1182 226 1160 219 1182 b 61 1150 151 1182 61 1165 b 65 1140 61 1146 63 1144 l 190 1026 b 347 1015 204 1017 307 1015 b 358 1024 356 1015 358 1018 z m 181 135 l 181 858 l 183 858 b 211 704 214 865 215 867 b 206 140 208 599 204 425 b 208 132 206 140 207 133 l 208 131 b 193 104 208 122 203 104 b 183 111 189 104 185 106 z m 258 1047 b 253 1043 258 1044 258 1043 b 249 1046 251 1043 249 1043 b 149 1144 214 1081 149 1136 b 156 1150 149 1149 153 1150 b 206 1111 164 1150 194 1121 b 258 1047 215 1099 258 1051 z "},"":{"ha":422,"x_min":0,"x_max":0,"o":"m 29 47 b 83 13 33 18 58 15 l 86 13 b 144 11 97 13 138 11 b 188 10 147 11 178 10 b 226 11 197 10 224 11 b 306 17 239 11 294 15 b 375 68 343 21 371 28 b 381 122 376 76 381 114 b 393 472 383 175 392 419 b 394 581 393 478 394 554 b 393 688 394 607 393 683 b 385 914 393 721 386 879 b 321 943 383 940 338 943 l 251 943 b 93 938 199 943 146 938 l 68 938 b 58 940 65 940 63 940 b 47 932 53 940 51 939 b 29 444 43 858 31 518 b 28 246 29 435 28 296 b 29 47 28 215 29 76 z m 61 1024 b 72 1015 61 1018 64 1015 b 229 1026 113 1015 215 1017 l 354 1140 b 358 1150 357 1144 358 1146 b 226 1182 358 1165 268 1182 b 176 1143 200 1182 193 1160 l 71 1032 b 61 1024 63 1029 61 1028 z m 181 135 l 181 858 l 183 858 b 211 704 214 865 215 867 b 206 140 208 599 204 425 b 208 132 206 140 207 133 l 208 131 b 193 104 208 122 203 104 b 183 111 189 104 185 106 z m 161 1047 b 214 1111 161 1051 204 1099 b 264 1150 225 1121 256 1150 b 271 1144 267 1150 271 1149 b 171 1046 271 1136 206 1081 b 167 1043 171 1043 168 1043 b 161 1047 161 1043 161 1044 z "},"":{"ha":481,"x_min":0,"x_max":0,"o":"m 71 47 b 125 13 75 18 100 15 l 128 13 b 186 11 139 13 179 11 b 229 10 189 11 219 10 b 268 11 239 10 265 11 b 347 17 281 11 336 15 b 417 68 385 21 413 28 b 422 122 418 76 422 114 b 435 472 425 175 433 419 b 436 581 435 478 436 554 b 435 688 436 607 435 683 b 426 914 435 721 428 879 b 363 943 425 940 379 943 l 293 943 b 135 938 240 943 188 938 l 110 938 b 100 940 107 940 104 940 b 89 932 94 940 93 939 b 71 444 85 858 72 518 b 69 246 71 435 69 296 b 71 47 69 215 71 76 z m 28 1011 b 140 996 28 988 111 996 b 231 1093 203 996 213 1072 b 360 997 261 1093 299 997 b 453 1017 371 997 453 1000 b 432 1054 453 1029 436 1047 l 432 1057 b 397 1107 432 1061 411 1089 l 300 1222 b 233 1264 285 1240 260 1264 b 196 1242 218 1264 206 1253 l 28 1014 z m 222 135 l 222 858 l 225 858 b 253 704 256 865 257 867 b 247 140 250 599 246 425 b 250 132 247 140 249 133 l 250 131 b 235 104 250 122 244 104 b 225 111 231 104 226 106 z m 115 1046 b 124 1063 115 1051 121 1058 l 225 1194 b 233 1199 226 1197 229 1199 b 365 1060 263 1199 324 1106 b 358 1053 365 1057 363 1053 b 235 1182 354 1051 254 1169 l 233 1181 l 132 1050 b 121 1040 129 1047 126 1040 b 115 1046 118 1040 115 1043 z "},"":{"ha":478,"x_min":0,"x_max":0,"o":"m 75 47 b 129 13 79 18 104 15 l 132 13 b 190 11 143 13 183 11 b 233 10 193 11 224 10 b 272 11 243 10 269 11 b 351 17 285 11 340 15 b 421 68 389 21 417 28 b 426 122 422 76 426 114 b 439 472 429 175 438 419 b 440 581 439 478 440 554 b 439 688 440 607 439 683 b 431 914 439 721 432 879 b 367 943 429 940 383 943 l 297 943 b 139 938 244 943 192 938 l 114 938 b 104 940 111 940 108 940 b 93 932 99 940 97 939 b 75 444 89 858 76 518 b 74 246 75 435 74 296 b 75 47 74 215 75 76 z m 29 1065 b 222 1082 33 978 226 996 b 125 1151 219 1132 144 1153 b 29 1065 86 1150 26 1113 z m 265 1072 b 356 1010 268 1025 318 1008 b 449 1079 389 1011 451 1032 b 326 1151 444 1149 374 1154 b 265 1072 290 1150 264 1110 z m 226 135 l 226 858 l 229 858 b 257 704 260 865 261 867 b 251 140 254 599 250 425 b 254 132 251 140 253 133 l 254 131 b 239 104 254 122 249 104 b 229 111 235 104 231 106 z "},"":{"ha":974,"x_min":0,"x_max":0,"o":"m 28 418 b 403 26 28 200 153 26 b 908 406 661 26 836 157 b 946 619 928 475 946 547 b 563 1006 946 879 758 1006 b 28 418 311 1006 31 806 z m 179 461 b 557 874 179 665 301 874 b 815 647 688 874 815 786 b 426 178 815 432 650 178 b 179 461 264 178 179 308 z m 201 463 b 425 201 201 321 274 201 b 764 481 572 201 728 343 b 794 647 778 536 794 590 b 554 853 794 771 668 853 b 201 463 318 853 201 657 z m 326 486 b 508 725 335 650 428 725 b 639 579 576 725 639 674 b 438 369 639 488 557 369 b 326 486 364 369 326 432 z m 603 1111 b 597 1107 603 1108 603 1107 b 593 1110 596 1107 593 1107 b 493 1208 558 1144 493 1200 b 500 1214 493 1213 497 1214 b 550 1175 508 1214 539 1185 b 603 1111 560 1163 603 1115 z m 703 1088 b 693 1096 703 1092 701 1093 l 588 1207 b 538 1246 571 1224 564 1246 b 406 1214 496 1246 406 1229 b 410 1204 406 1210 407 1208 l 535 1090 b 692 1079 549 1081 651 1079 b 703 1088 700 1079 703 1082 z "},"":{"ha":974,"x_min":0,"x_max":0,"o":"m 28 418 b 403 26 28 200 153 26 b 908 406 661 26 836 157 b 946 619 928 475 946 547 b 563 1006 946 879 758 1006 b 28 418 311 1006 31 806 z m 179 461 b 557 874 179 665 301 874 b 815 647 688 874 815 786 b 426 178 815 432 650 178 b 179 461 264 178 179 308 z m 201 463 b 425 201 201 321 274 201 b 764 481 572 201 728 343 b 794 647 778 536 794 590 b 554 853 794 771 668 853 b 201 463 318 853 201 657 z m 326 486 b 508 725 335 650 428 725 b 639 579 576 725 639 674 b 438 369 639 488 557 369 b 326 486 364 369 326 432 z m 406 1088 b 417 1079 406 1082 408 1079 b 574 1090 457 1079 560 1081 l 699 1204 b 703 1214 701 1208 703 1210 b 571 1246 703 1229 613 1246 b 521 1207 544 1246 538 1224 l 415 1096 b 406 1088 407 1093 406 1092 z m 506 1111 b 558 1175 506 1115 549 1163 b 608 1214 569 1185 600 1214 b 615 1208 611 1214 615 1213 b 515 1110 615 1200 550 1144 b 511 1107 515 1107 513 1107 b 506 1111 506 1107 506 1108 z "},"":{"ha":974,"x_min":0,"x_max":0,"o":"m 28 418 b 403 26 28 200 153 26 b 908 406 661 26 836 157 b 946 619 928 475 946 547 b 563 1006 946 879 758 1006 b 28 418 311 1006 31 806 z m 179 461 b 557 874 179 665 301 874 b 815 647 688 874 815 786 b 426 178 815 432 650 178 b 179 461 264 178 179 308 z m 201 463 b 425 201 201 321 274 201 b 764 481 572 201 728 343 b 794 647 778 536 794 590 b 554 853 794 771 668 853 b 201 463 318 853 201 657 z m 326 486 b 508 725 335 650 428 725 b 639 579 576 725 639 674 b 438 369 639 488 557 369 b 326 486 364 369 326 432 z m 331 1075 b 443 1060 331 1051 414 1060 b 533 1157 506 1060 515 1136 b 663 1061 564 1157 601 1061 b 756 1081 674 1061 756 1064 b 735 1118 756 1093 739 1111 l 735 1121 b 700 1171 735 1125 714 1153 l 603 1286 b 536 1328 588 1304 563 1328 b 499 1306 521 1328 508 1317 l 331 1078 z m 418 1110 b 426 1126 418 1115 424 1122 l 528 1258 b 536 1263 529 1261 532 1263 b 668 1124 565 1263 626 1169 b 661 1117 668 1121 665 1117 b 538 1246 657 1115 557 1233 l 536 1244 l 435 1114 b 424 1104 432 1111 429 1104 b 418 1110 421 1104 418 1107 z "},"":{"ha":974,"x_min":0,"x_max":0,"o":"m 28 418 b 403 26 28 200 153 26 b 908 406 661 26 836 157 b 946 619 928 475 946 547 b 563 1006 946 879 758 1006 b 28 418 311 1006 31 806 z m 179 461 b 557 874 179 665 301 874 b 815 647 688 874 815 786 b 426 178 815 432 650 178 b 179 461 264 178 179 308 z m 201 463 b 425 201 201 321 274 201 b 764 481 572 201 728 343 b 794 647 778 536 794 590 b 554 853 794 771 668 853 b 201 463 318 853 201 657 z m 326 486 b 508 725 335 650 428 725 b 639 579 576 725 639 674 b 438 369 639 488 557 369 b 326 486 364 369 326 432 z m 460 1135 b 511 1103 482 1135 494 1114 b 611 1071 542 1081 574 1071 b 756 1188 689 1071 728 1135 b 704 1250 756 1194 725 1250 b 615 1182 681 1250 661 1183 b 583 1192 604 1182 592 1185 l 511 1239 b 454 1256 493 1250 474 1256 b 315 1107 367 1256 325 1182 b 403 1069 338 1097 383 1069 b 460 1135 424 1069 425 1135 z m 451 1192 b 378 1129 413 1192 383 1131 b 371 1135 374 1129 371 1132 b 451 1204 371 1157 418 1204 b 603 1139 517 1204 544 1139 b 646 1153 617 1140 633 1143 l 710 1194 b 714 1196 710 1196 713 1196 b 721 1192 717 1196 721 1196 b 601 1126 721 1178 642 1126 b 451 1192 543 1126 511 1192 z "},"":{"ha":974,"x_min":0,"x_max":0,"o":"m 28 418 b 403 26 28 200 153 26 b 908 406 661 26 836 157 b 946 619 928 475 946 547 b 563 1006 946 879 758 1006 b 28 418 311 1006 31 806 z m 179 461 b 557 874 179 665 301 874 b 815 647 688 874 815 786 b 426 178 815 432 650 178 b 179 461 264 178 179 308 z m 201 463 b 425 201 201 321 274 201 b 764 481 572 201 728 343 b 794 647 778 536 794 590 b 554 853 794 771 668 853 b 201 463 318 853 201 657 z m 326 486 b 508 725 335 650 428 725 b 639 579 576 725 639 674 b 438 369 639 488 557 369 b 326 486 364 369 326 432 z m 564 1136 b 654 1074 567 1089 617 1072 b 747 1143 688 1075 750 1096 b 625 1215 743 1213 672 1218 b 564 1136 589 1214 563 1174 z m 328 1129 b 521 1146 332 1042 525 1060 b 424 1215 518 1196 443 1217 b 328 1129 385 1214 325 1176 z "},"":{"ha":974,"x_min":0,"x_max":0,"o":"m 28 418 b 222 64 28 261 93 126 l 206 11 b 306 -75 182 -60 208 -53 b 347 29 324 -49 332 -7 b 403 26 365 26 383 26 b 908 406 661 26 836 157 b 946 619 928 475 946 547 b 751 961 946 790 864 904 b 796 1068 774 1001 803 1044 b 726 1094 789 1094 744 1093 l 703 1097 b 651 1038 660 1103 668 1101 l 640 999 b 563 1006 614 1003 589 1006 b 28 418 311 1006 31 806 z m 713 1057 b 736 1056 718 1071 735 1069 l 658 856 b 815 647 746 822 815 749 b 426 178 815 432 650 178 b 343 190 396 178 368 182 l 278 -12 b 254 -7 269 -24 254 -22 l 321 200 b 179 461 228 243 179 346 b 557 874 179 665 301 874 b 635 863 583 874 610 869 z m 201 463 b 425 201 201 321 274 201 b 764 481 572 201 728 343 b 794 647 778 536 794 590 b 554 853 794 771 668 853 b 201 463 318 853 201 657 z m 326 486 b 508 725 335 650 428 725 b 639 579 576 725 639 674 b 438 369 639 488 557 369 b 326 486 364 369 326 432 z "},"":{"ha":906,"x_min":0,"x_max":0,"o":"m 29 583 b 167 168 36 432 85 292 b 176 156 167 165 175 157 b 489 17 264 63 358 17 b 786 278 638 17 739 149 b 875 913 840 421 886 756 b 863 924 875 918 868 924 b 665 933 790 935 739 933 l 569 933 b 550 911 556 932 550 922 b 464 363 553 517 506 363 b 401 478 418 363 407 438 b 400 486 401 481 400 483 b 392 572 399 506 392 567 l 392 649 b 394 856 392 718 394 786 b 349 936 394 897 394 926 l 318 936 b 39 896 58 918 42 910 b 29 735 38 872 29 758 b 28 660 29 732 28 678 b 29 583 28 649 29 594 z m 254 306 b 219 419 249 322 224 403 b 203 549 219 426 207 518 b 200 588 201 556 200 585 l 200 789 b 203 818 200 792 201 813 b 215 833 204 826 208 833 b 224 828 219 833 224 833 l 224 825 b 219 807 222 822 221 810 l 219 607 l 235 458 b 242 426 238 454 242 429 b 457 171 272 311 315 171 b 540 224 493 171 518 199 l 550 233 b 747 828 679 372 724 654 b 760 833 750 833 756 833 b 768 831 761 833 768 835 l 768 807 b 733 615 768 797 743 663 b 668 396 719 544 696 464 b 633 318 664 383 638 329 b 590 247 629 310 599 264 b 460 147 564 208 515 147 b 254 306 360 147 290 221 z m 528 1022 b 522 1018 528 1019 528 1018 b 518 1021 521 1018 518 1018 b 418 1119 483 1056 418 1111 b 425 1125 418 1124 422 1125 b 475 1086 433 1125 464 1096 b 528 1022 485 1074 528 1026 z m 628 999 b 618 1007 628 1003 626 1004 l 513 1118 b 463 1157 496 1135 489 1157 b 331 1125 421 1157 331 1140 b 335 1115 331 1121 332 1119 l 460 1001 b 617 990 474 992 576 990 b 628 999 625 990 628 993 z "},"":{"ha":906,"x_min":0,"x_max":0,"o":"m 29 583 b 167 168 36 432 85 292 b 176 156 167 165 175 157 b 489 17 264 63 358 17 b 786 278 638 17 739 149 b 875 913 840 421 886 756 b 863 924 875 918 868 924 b 665 933 790 935 739 933 l 569 933 b 550 911 556 932 550 922 b 464 363 553 517 506 363 b 401 478 418 363 407 438 b 400 486 401 481 400 483 b 392 572 399 506 392 567 l 392 649 b 394 856 392 718 394 786 b 349 936 394 897 394 926 l 318 936 b 39 896 58 918 42 910 b 29 735 38 872 29 758 b 28 660 29 732 28 678 b 29 583 28 649 29 594 z m 254 306 b 219 419 249 322 224 403 b 203 549 219 426 207 518 b 200 588 201 556 200 585 l 200 789 b 203 818 200 792 201 813 b 215 833 204 826 208 833 b 224 828 219 833 224 833 l 224 825 b 219 807 222 822 221 810 l 219 607 l 235 458 b 242 426 238 454 242 429 b 457 171 272 311 315 171 b 540 224 493 171 518 199 l 550 233 b 747 828 679 372 724 654 b 760 833 750 833 756 833 b 768 831 761 833 768 835 l 768 807 b 733 615 768 797 743 663 b 668 396 719 544 696 464 b 633 318 664 383 638 329 b 590 247 629 310 599 264 b 460 147 564 208 515 147 b 254 306 360 147 290 221 z m 331 999 b 342 990 331 993 333 990 b 499 1001 382 990 485 992 l 624 1115 b 628 1125 626 1119 628 1121 b 496 1157 628 1140 538 1157 b 446 1118 469 1157 463 1135 l 340 1007 b 331 999 332 1004 331 1003 z m 431 1022 b 483 1086 431 1026 474 1074 b 533 1125 494 1096 525 1125 b 540 1119 536 1125 540 1124 b 440 1021 540 1111 475 1056 b 436 1018 440 1018 438 1018 b 431 1022 431 1018 431 1019 z "},"":{"ha":906,"x_min":0,"x_max":0,"o":"m 29 583 b 167 168 36 432 85 292 b 176 156 167 165 175 157 b 489 17 264 63 358 17 b 786 278 638 17 739 149 b 875 913 840 421 886 756 b 863 924 875 918 868 924 b 665 933 790 935 739 933 l 569 933 b 550 911 556 932 550 922 b 464 363 553 517 506 363 b 401 478 418 363 407 438 b 400 486 401 481 400 483 b 392 572 399 506 392 567 l 392 649 b 394 856 392 718 394 786 b 349 936 394 897 394 926 l 318 936 b 39 896 58 918 42 910 b 29 735 38 872 29 758 b 28 660 29 732 28 678 b 29 583 28 649 29 594 z m 256 986 b 368 971 256 963 339 971 b 458 1068 431 971 440 1047 b 588 972 489 1068 526 972 b 681 992 599 972 681 975 b 660 1029 681 1004 664 1022 l 660 1032 b 625 1082 660 1036 639 1064 l 528 1197 b 461 1239 513 1215 488 1239 b 424 1217 446 1239 433 1228 l 256 989 z m 254 306 b 219 419 249 322 224 403 b 203 549 219 426 207 518 b 200 588 201 556 200 585 l 200 789 b 203 818 200 792 201 813 b 215 833 204 826 208 833 b 224 828 219 833 224 833 l 224 825 b 219 807 222 822 221 810 l 219 607 l 235 458 b 242 426 238 454 242 429 b 457 171 272 311 315 171 b 540 224 493 171 518 199 l 550 233 b 747 828 679 372 724 654 b 760 833 750 833 756 833 b 768 831 761 833 768 835 l 768 807 b 733 615 768 797 743 663 b 668 396 719 544 696 464 b 633 318 664 383 638 329 b 590 247 629 310 599 264 b 460 147 564 208 515 147 b 254 306 360 147 290 221 z m 343 1021 b 351 1038 343 1026 349 1033 l 453 1169 b 461 1174 454 1172 457 1174 b 593 1035 490 1174 551 1081 b 586 1028 593 1032 590 1028 b 463 1157 582 1026 482 1144 l 461 1156 l 360 1025 b 349 1015 357 1022 354 1015 b 343 1021 346 1015 343 1018 z "},"":{"ha":906,"x_min":0,"x_max":0,"o":"m 29 583 b 167 168 36 432 85 292 b 176 156 167 165 175 157 b 489 17 264 63 358 17 b 786 278 638 17 739 149 b 875 913 840 421 886 756 b 863 924 875 918 868 924 b 665 933 790 935 739 933 l 569 933 b 550 911 556 932 550 922 b 464 363 553 517 506 363 b 401 478 418 363 407 438 b 400 486 401 481 400 483 b 392 572 399 506 392 567 l 392 649 b 394 856 392 718 394 786 b 349 936 394 897 394 926 l 318 936 b 39 896 58 918 42 910 b 29 735 38 872 29 758 b 28 660 29 732 28 678 b 29 583 28 649 29 594 z m 254 306 b 219 419 249 322 224 403 b 203 549 219 426 207 518 b 200 588 201 556 200 585 l 200 789 b 203 818 200 792 201 813 b 215 833 204 826 208 833 b 224 828 219 833 224 833 l 224 825 b 219 807 222 822 221 810 l 219 607 l 235 458 b 242 426 238 454 242 429 b 457 171 272 311 315 171 b 540 224 493 171 518 199 l 550 233 b 747 828 679 372 724 654 b 760 833 750 833 756 833 b 768 831 761 833 768 835 l 768 807 b 733 615 768 797 743 663 b 668 396 719 544 696 464 b 633 318 664 383 638 329 b 590 247 629 310 599 264 b 460 147 564 208 515 147 b 254 306 360 147 290 221 z m 489 1047 b 579 985 492 1000 542 983 b 672 1054 613 986 675 1007 b 550 1126 668 1124 597 1129 b 489 1047 514 1125 488 1085 z m 253 1040 b 446 1057 257 953 450 971 b 349 1126 443 1107 368 1128 b 253 1040 310 1125 250 1088 z "},"":{"ha":825,"x_min":0,"x_max":0,"o":"m 500 -24 b 614 -31 517 -25 596 -31 l 647 -31 b 724 50 710 -31 707 -6 b 732 89 725 57 732 85 b 732 99 733 90 733 97 b 701 756 785 315 860 624 b 396 856 613 829 508 856 l 342 856 b 182 850 318 854 206 850 l 178 850 b 136 828 163 849 136 846 b 132 626 136 742 132 710 b 151 599 132 610 135 599 b 317 608 207 599 263 608 b 453 486 401 608 482 650 b 54 296 308 494 129 424 b 28 176 33 260 28 219 b 296 1 28 46 193 1 b 486 53 363 1 428 19 l 489 53 l 489 47 l 481 1 b 500 -24 481 -12 486 -22 z m 596 88 b 603 165 596 115 603 139 b 600 167 603 165 601 167 b 351 111 518 138 439 111 b 164 204 288 111 164 111 b 382 394 164 310 296 372 b 431 406 390 397 419 404 b 593 421 456 407 569 418 l 603 421 b 628 417 614 421 618 421 l 633 421 b 647 494 635 422 646 475 l 653 511 b 385 719 653 700 583 719 l 342 719 b 299 717 338 719 308 717 b 253 707 286 715 265 707 b 246 717 246 707 246 711 b 275 736 246 732 264 735 b 354 742 290 738 346 742 l 388 742 b 667 506 610 742 667 704 b 661 482 667 490 661 485 l 619 86 b 608 75 618 78 614 75 b 596 88 600 75 596 82 z m 189 206 b 351 135 189 133 297 135 l 363 135 b 560 175 431 135 494 153 b 606 199 571 181 606 192 l 628 389 l 628 394 b 617 397 628 394 619 397 b 601 399 615 397 604 399 b 588 397 597 399 589 397 l 415 381 b 351 364 403 379 361 367 b 189 206 283 336 189 293 z m 617 932 b 607 940 617 936 615 938 l 501 1051 b 451 1090 485 1068 478 1090 b 319 1058 410 1090 319 1074 b 324 1049 319 1054 321 1053 l 449 935 b 606 924 463 925 565 924 b 617 932 614 924 617 926 z m 281 221 b 365 296 281 257 336 288 l 463 324 l 471 324 b 461 246 471 300 463 267 l 461 243 b 443 221 458 233 456 224 b 340 206 408 211 376 206 l 308 206 b 281 221 296 208 281 208 z m 517 956 b 511 951 517 953 517 951 b 507 954 510 951 507 951 b 407 1053 472 989 407 1044 b 414 1058 407 1057 411 1058 b 464 1019 422 1058 453 1029 b 517 956 474 1007 517 960 z "},"":{"ha":825,"x_min":0,"x_max":0,"o":"m 500 -24 b 614 -31 517 -25 596 -31 l 647 -31 b 724 50 710 -31 707 -6 b 732 89 725 57 732 85 b 732 99 733 90 733 97 b 701 756 785 315 860 624 b 396 856 613 829 508 856 l 342 856 b 182 850 318 854 206 850 l 178 850 b 136 828 163 849 136 846 b 132 626 136 742 132 710 b 151 599 132 610 135 599 b 317 608 207 599 263 608 b 453 486 401 608 482 650 b 54 296 308 494 129 424 b 28 176 33 260 28 219 b 296 1 28 46 193 1 b 486 53 363 1 428 19 l 489 53 l 489 47 l 481 1 b 500 -24 481 -12 486 -22 z m 596 88 b 603 165 596 115 603 139 b 600 167 603 165 601 167 b 351 111 518 138 439 111 b 164 204 288 111 164 111 b 382 394 164 310 296 372 b 431 406 390 397 419 404 b 593 421 456 407 569 418 l 603 421 b 628 417 614 421 618 421 l 633 421 b 647 494 635 422 646 475 l 653 511 b 385 719 653 700 583 719 l 342 719 b 299 717 338 719 308 717 b 253 707 286 715 265 707 b 246 717 246 707 246 711 b 275 736 246 732 264 735 b 354 742 290 738 346 742 l 388 742 b 667 506 610 742 667 704 b 661 482 667 490 661 485 l 619 86 b 608 75 618 78 614 75 b 596 88 600 75 596 82 z m 189 206 b 351 135 189 133 297 135 l 363 135 b 560 175 431 135 494 153 b 606 199 571 181 606 192 l 628 389 l 628 394 b 617 397 628 394 619 397 b 601 399 615 397 604 399 b 588 397 597 399 589 397 l 415 381 b 351 364 403 379 361 367 b 189 206 283 336 189 293 z m 319 932 b 331 924 319 926 322 924 b 488 935 371 924 474 925 l 613 1049 b 617 1058 615 1053 617 1054 b 485 1090 617 1074 526 1090 b 435 1051 458 1090 451 1068 l 329 940 b 319 932 321 938 319 936 z m 281 221 b 365 296 281 257 336 288 l 463 324 l 471 324 b 461 246 471 300 463 267 l 461 243 b 443 221 458 233 456 224 b 340 206 408 211 376 206 l 308 206 b 281 221 296 208 281 208 z m 419 956 b 472 1019 419 960 463 1007 b 522 1058 483 1029 514 1058 b 529 1053 525 1058 529 1057 b 429 954 529 1044 464 989 b 425 951 429 951 426 951 b 419 956 419 951 419 953 z "},"":{"ha":825,"x_min":0,"x_max":0,"o":"m 500 -24 b 614 -31 517 -25 596 -31 l 647 -31 b 724 50 710 -31 707 -6 b 732 89 725 57 732 85 b 732 99 733 90 733 97 b 701 756 785 315 860 624 b 396 856 613 829 508 856 l 342 856 b 182 850 318 854 206 850 l 178 850 b 136 828 163 849 136 846 b 132 626 136 742 132 710 b 151 599 132 610 135 599 b 317 608 207 599 263 608 b 453 486 401 608 482 650 b 54 296 308 494 129 424 b 28 176 33 260 28 219 b 296 1 28 46 193 1 b 486 53 363 1 428 19 l 489 53 l 489 47 l 481 1 b 500 -24 481 -12 486 -22 z m 596 88 b 603 165 596 115 603 139 b 600 167 603 165 601 167 b 351 111 518 138 439 111 b 164 204 288 111 164 111 b 382 394 164 310 296 372 b 431 406 390 397 419 404 b 593 421 456 407 569 418 l 603 421 b 628 417 614 421 618 421 l 633 421 b 647 494 635 422 646 475 l 653 511 b 385 719 653 700 583 719 l 342 719 b 299 717 338 719 308 717 b 253 707 286 715 265 707 b 246 717 246 707 246 711 b 275 736 246 732 264 735 b 354 742 290 738 346 742 l 388 742 b 667 506 610 742 667 704 b 661 482 667 490 661 485 l 619 86 b 608 75 618 78 614 75 b 596 88 600 75 596 82 z m 189 206 b 351 135 189 133 297 135 l 363 135 b 560 175 431 135 494 153 b 606 199 571 181 606 192 l 628 389 l 628 394 b 617 397 628 394 619 397 b 601 399 615 397 604 399 b 588 397 597 399 589 397 l 415 381 b 351 364 403 379 361 367 b 189 206 283 336 189 293 z m 244 919 b 357 904 244 896 328 904 b 447 1001 419 904 429 981 b 576 906 478 1001 515 906 b 669 925 588 906 669 908 b 649 963 669 938 653 956 l 649 965 b 614 1015 649 969 628 997 l 517 1131 b 450 1172 501 1149 476 1172 b 413 1150 435 1172 422 1161 l 244 922 z m 281 221 b 365 296 281 257 336 288 l 463 324 l 471 324 b 461 246 471 300 463 267 l 461 243 b 443 221 458 233 456 224 b 340 206 408 211 376 206 l 308 206 b 281 221 296 208 281 208 z m 332 954 b 340 971 332 960 338 967 l 442 1103 b 450 1107 443 1106 446 1107 b 582 968 479 1107 540 1014 b 575 961 582 965 579 961 b 451 1090 571 960 471 1078 l 450 1089 l 349 958 b 338 949 346 956 343 949 b 332 954 335 949 332 951 z "},"":{"ha":825,"x_min":0,"x_max":0,"o":"m 500 -24 b 614 -31 517 -25 596 -31 l 647 -31 b 724 50 710 -31 707 -6 b 732 89 725 57 732 85 b 732 99 733 90 733 97 b 701 756 785 315 860 624 b 396 856 613 829 508 856 l 342 856 b 182 850 318 854 206 850 l 178 850 b 136 828 163 849 136 846 b 132 626 136 742 132 710 b 151 599 132 610 135 599 b 317 608 207 599 263 608 b 453 486 401 608 482 650 b 54 296 308 494 129 424 b 28 176 33 260 28 219 b 296 1 28 46 193 1 b 486 53 363 1 428 19 l 489 53 l 489 47 l 481 1 b 500 -24 481 -12 486 -22 z m 596 88 b 603 165 596 115 603 139 b 600 167 603 165 601 167 b 351 111 518 138 439 111 b 164 204 288 111 164 111 b 382 394 164 310 296 372 b 431 406 390 397 419 404 b 593 421 456 407 569 418 l 603 421 b 628 417 614 421 618 421 l 633 421 b 647 494 635 422 646 475 l 653 511 b 385 719 653 700 583 719 l 342 719 b 299 717 338 719 308 717 b 253 707 286 715 265 707 b 246 717 246 707 246 711 b 275 736 246 732 264 735 b 354 742 290 738 346 742 l 388 742 b 667 506 610 742 667 704 b 661 482 667 490 661 485 l 619 86 b 608 75 618 78 614 75 b 596 88 600 75 596 82 z m 189 206 b 351 135 189 133 297 135 l 363 135 b 560 175 431 135 494 153 b 606 199 571 181 606 192 l 628 389 l 628 394 b 617 397 628 394 619 397 b 601 399 615 397 604 399 b 588 397 597 399 589 397 l 415 381 b 351 364 403 379 361 367 b 189 206 283 336 189 293 z m 374 979 b 425 947 396 979 408 958 b 525 915 456 925 488 915 b 669 1032 603 915 642 979 b 618 1094 669 1039 639 1094 b 529 1026 594 1094 575 1028 b 497 1036 518 1026 506 1029 l 425 1083 b 368 1100 407 1094 388 1100 b 229 951 281 1100 239 1026 b 317 914 251 942 297 914 b 374 979 338 914 339 979 z m 281 221 b 365 296 281 257 336 288 l 463 324 l 471 324 b 461 246 471 300 463 267 l 461 243 b 443 221 458 233 456 224 b 340 206 408 211 376 206 l 308 206 b 281 221 296 208 281 208 z m 365 1036 b 292 974 326 1036 297 975 b 285 979 288 974 285 976 b 365 1049 285 1001 332 1049 b 517 983 431 1049 458 983 b 560 997 531 985 547 988 l 624 1039 b 628 1040 624 1040 626 1040 b 635 1036 631 1040 635 1040 b 515 971 635 1022 556 971 b 365 1036 457 971 425 1036 z "},"":{"ha":825,"x_min":0,"x_max":0,"o":"m 500 -24 b 614 -31 517 -25 596 -31 l 647 -31 b 724 50 710 -31 707 -6 b 732 89 725 57 732 85 b 732 99 733 90 733 97 b 701 756 785 315 860 624 b 396 856 613 829 508 856 l 342 856 b 182 850 318 854 206 850 l 178 850 b 136 828 163 849 136 846 b 132 626 136 742 132 710 b 151 599 132 610 135 599 b 317 608 207 599 263 608 b 453 486 401 608 482 650 b 54 296 308 494 129 424 b 28 176 33 260 28 219 b 296 1 28 46 193 1 b 486 53 363 1 428 19 l 489 53 l 489 47 l 481 1 b 500 -24 481 -12 486 -22 z m 596 88 b 603 165 596 115 603 139 b 600 167 603 165 601 167 b 351 111 518 138 439 111 b 164 204 288 111 164 111 b 382 394 164 310 296 372 b 431 406 390 397 419 404 b 593 421 456 407 569 418 l 603 421 b 628 417 614 421 618 421 l 633 421 b 647 494 635 422 646 475 l 653 511 b 385 719 653 700 583 719 l 342 719 b 299 717 338 719 308 717 b 253 707 286 715 265 707 b 246 717 246 707 246 711 b 275 736 246 732 264 735 b 354 742 290 738 346 742 l 388 742 b 667 506 610 742 667 704 b 661 482 667 490 661 485 l 619 86 b 608 75 618 78 614 75 b 596 88 600 75 596 82 z m 189 206 b 351 135 189 133 297 135 l 363 135 b 560 175 431 135 494 153 b 606 199 571 181 606 192 l 628 389 l 628 394 b 617 397 628 394 619 397 b 601 399 615 397 604 399 b 588 397 597 399 589 397 l 415 381 b 351 364 403 379 361 367 b 189 206 283 336 189 293 z m 242 974 b 435 990 246 886 439 904 b 338 1060 432 1040 357 1061 b 242 974 299 1058 239 1021 z m 478 981 b 568 918 481 933 531 917 b 661 988 601 919 664 940 b 539 1060 657 1057 586 1063 b 478 981 503 1058 476 1018 z m 281 221 b 365 296 281 257 336 288 l 463 324 l 471 324 b 461 246 471 300 463 267 l 461 243 b 443 221 458 233 456 224 b 340 206 408 211 376 206 l 308 206 b 281 221 296 208 281 208 z "},"":{"ha":825,"x_min":0,"x_max":0,"o":"m 500 -24 b 614 -31 517 -25 596 -31 l 647 -31 b 724 50 710 -31 707 -6 b 732 89 725 57 732 85 b 732 99 733 90 733 97 b 701 756 785 315 860 624 b 396 856 613 829 508 856 l 342 856 b 182 850 318 854 206 850 l 178 850 b 136 828 163 849 136 846 b 132 626 136 742 132 710 b 151 599 132 610 135 599 b 317 608 207 599 263 608 b 453 486 401 608 482 650 b 54 296 308 494 129 424 b 28 176 33 260 28 219 b 296 1 28 46 193 1 b 486 53 363 1 428 19 l 489 53 l 489 47 l 481 1 b 500 -24 481 -12 486 -22 z m 596 88 b 603 165 596 115 603 139 b 600 167 603 165 601 167 b 351 111 518 138 439 111 b 164 204 288 111 164 111 b 382 394 164 310 296 372 b 431 406 390 397 419 404 b 593 421 456 407 569 418 l 603 421 b 628 417 614 421 618 421 l 633 421 b 647 494 635 422 646 475 l 653 511 b 385 719 653 700 583 719 l 342 719 b 299 717 338 719 308 717 b 253 707 286 715 265 707 b 246 717 246 707 246 711 b 275 736 246 732 264 735 b 354 742 290 738 346 742 l 388 742 b 667 506 610 742 667 704 b 661 482 667 490 661 485 l 619 86 b 608 75 618 78 614 75 b 596 88 600 75 596 82 z m 189 206 b 351 135 189 133 297 135 l 363 135 b 560 175 431 135 494 153 b 606 199 571 181 606 192 l 628 389 l 628 394 b 617 397 628 394 619 397 b 601 399 615 397 604 399 b 588 397 597 399 589 397 l 415 381 b 351 364 403 379 361 367 b 189 206 283 336 189 293 z m 311 1044 b 444 917 311 972 374 917 b 613 1082 563 917 613 997 b 460 1206 613 1165 536 1206 b 311 1044 382 1206 311 1117 z m 361 1044 b 476 1161 361 1103 410 1161 b 553 1083 508 1161 553 1117 b 457 969 553 1024 522 969 b 361 1044 411 969 361 994 z m 375 1044 b 457 983 375 1004 421 983 b 538 1083 511 983 538 1033 b 460 1146 538 1119 493 1146 b 375 1044 415 1146 375 1088 z m 281 221 b 365 296 281 257 336 288 l 463 324 l 471 324 b 461 246 471 300 463 267 l 461 243 b 443 221 458 233 456 224 b 340 206 408 211 376 206 l 308 206 b 281 221 296 208 281 208 z m 424 1057 b 458 1097 424 1075 439 1097 b 475 1064 471 1097 475 1072 b 436 1032 475 1039 460 1032 l 433 1035 b 424 1057 425 1043 424 1044 z "},"":{"ha":1379,"x_min":0,"x_max":0,"o":"m 500 -24 b 614 -31 517 -25 596 -31 l 647 -31 b 724 50 710 -31 707 -6 b 732 89 725 57 732 85 b 732 99 733 90 733 97 b 733 106 732 101 733 103 b 1178 -31 842 -11 994 -31 b 1269 14 1221 -31 1263 -39 l 1293 207 l 1293 238 b 1213 256 1293 261 1228 256 b 965 253 1129 256 1058 253 b 942 269 957 253 942 258 l 942 311 b 963 314 942 311 957 314 b 1285 344 1074 324 1172 321 b 1350 522 1350 357 1350 499 b 1090 854 1356 688 1275 854 b 753 647 939 854 840 768 b 701 756 738 690 735 726 b 396 856 613 829 508 856 l 342 856 b 182 850 318 854 206 850 l 178 850 b 136 828 163 849 136 846 b 132 626 136 742 132 710 b 151 599 132 610 135 599 b 317 608 207 599 263 608 b 453 486 401 608 482 650 b 54 296 308 494 129 424 b 28 176 33 260 28 219 b 296 1 28 46 193 1 b 486 53 363 1 428 19 l 489 53 l 489 47 l 481 1 b 500 -24 481 -12 486 -22 z m 596 88 b 603 165 596 115 603 139 b 600 167 603 165 601 167 b 351 111 518 138 439 111 b 164 204 288 111 164 111 b 382 394 164 310 294 376 b 628 417 546 428 554 417 l 633 421 b 647 494 635 422 646 475 l 653 511 b 385 719 653 700 583 719 l 342 719 b 299 717 338 719 308 717 b 253 707 286 715 265 707 b 246 717 246 707 246 711 b 275 736 246 732 264 735 b 354 742 290 738 346 742 l 388 742 b 667 506 610 742 667 704 b 661 482 667 490 661 485 l 654 419 b 792 414 713 417 760 414 b 881 613 806 485 838 550 b 1064 742 922 672 983 742 b 1271 529 1171 742 1271 631 b 1221 425 1271 483 1268 440 b 1004 383 1142 410 1039 383 l 810 383 l 808 372 b 807 346 808 369 807 353 b 1051 128 807 200 918 128 b 1176 146 1099 128 1131 135 b 1183 147 1178 146 1182 147 b 1196 136 1190 147 1196 144 b 1054 107 1196 104 1054 107 b 785 336 906 107 785 199 b 788 386 785 353 785 369 b 651 389 754 388 693 392 l 619 86 b 608 75 618 78 614 75 b 596 88 600 75 596 82 z m 1065 722 b 900 603 997 722 936 657 b 813 411 860 544 811 453 l 813 406 l 996 406 b 1217 446 1067 406 1147 429 b 1244 572 1256 456 1254 549 b 1065 722 1226 644 1140 722 z m 189 206 b 351 135 189 133 297 135 l 363 135 b 560 175 431 135 494 153 b 606 199 571 181 606 192 l 628 389 l 628 394 b 617 397 628 394 619 397 b 354 364 471 400 372 369 l 351 364 b 189 206 283 336 189 293 z m 281 221 b 365 296 281 257 336 288 l 463 324 l 471 324 b 461 246 471 300 463 267 l 461 243 b 443 221 458 233 456 224 b 340 206 408 211 376 206 l 308 206 b 281 221 296 208 281 208 z m 1049 622 b 1097 515 1092 622 1097 543 b 967 481 1097 471 978 479 l 965 481 b 1049 622 965 518 1004 622 z "},"":{"ha":836,"x_min":0,"x_max":0,"o":"m 192 -269 b 197 -285 192 -274 196 -282 l 253 -378 b 260 -387 253 -379 257 -386 b 318 -360 279 -387 306 -360 b 472 -164 388 -312 472 -250 b 406 -115 472 -125 444 -117 l 422 24 b 786 335 578 54 743 190 l 783 339 l 529 360 l 469 360 b 411 294 457 315 433 294 b 369 357 389 294 369 317 b 440 503 369 469 422 503 b 508 440 475 503 508 451 l 507 439 l 807 514 b 808 531 807 518 808 525 b 807 536 808 532 808 535 b 468 749 765 678 646 749 b 28 314 222 749 28 542 b 267 26 28 149 128 54 b 261 -124 263 -25 261 -71 b 278 -143 269 -129 269 -139 b 339 -189 299 -156 339 -156 b 217 -260 339 -240 218 -260 b 192 -269 210 -264 192 -260 z m 282 -308 l 282 -306 l 367 -231 b 394 -186 378 -219 394 -201 b 322 -117 394 -144 349 -129 l 318 -111 b 317 -104 317 -108 317 -107 b 331 151 318 -18 329 67 b 168 322 239 158 168 228 b 429 610 168 467 279 610 b 607 556 493 610 560 597 b 614 542 613 550 614 547 b 606 533 614 535 611 533 b 551 556 586 533 569 549 b 429 588 510 571 474 588 b 189 324 294 588 189 454 b 340 174 189 240 257 174 b 492 225 393 174 449 200 l 529 253 b 561 278 535 257 553 278 b 571 261 568 278 571 265 b 358 151 571 231 439 160 b 342 -97 357 65 346 -4 b 415 -178 369 -118 415 -140 b 301 -306 415 -208 388 -249 b 289 -314 297 -306 290 -314 b 282 -308 283 -314 282 -312 z "},"":{"ha":800,"x_min":0,"x_max":0,"o":"m 28 346 b 599 -3 28 35 338 -3 b 690 42 642 -3 683 -11 l 714 235 l 714 265 b 633 283 714 289 649 283 b 386 281 550 283 479 281 b 363 297 378 281 363 286 l 363 339 b 383 342 363 339 378 342 b 706 372 494 351 593 349 b 771 550 771 385 771 526 b 511 882 776 715 696 882 b 28 346 239 882 28 601 z m 206 364 b 301 640 206 468 243 556 b 485 769 343 700 404 769 b 692 557 592 769 692 658 b 642 453 692 511 689 468 b 425 411 563 438 460 411 l 231 411 l 229 400 b 228 374 229 397 228 381 b 472 156 228 228 339 156 b 597 174 519 156 551 163 b 604 175 599 174 603 175 b 617 164 611 175 617 172 b 475 135 617 132 475 135 b 206 364 326 135 206 226 z m 486 750 b 321 631 418 750 357 685 b 233 439 281 572 232 481 l 233 433 l 417 433 b 638 474 488 433 568 457 b 665 600 676 483 675 576 b 486 750 647 672 561 750 z m 599 919 b 589 928 599 924 597 925 l 483 1039 b 433 1078 467 1056 460 1078 b 301 1046 392 1078 301 1061 b 306 1036 301 1042 303 1040 l 431 922 b 588 911 444 913 547 911 b 599 919 596 911 599 914 z m 469 650 b 518 543 513 650 518 571 b 388 508 518 499 399 507 l 386 508 b 469 650 386 546 425 650 z m 499 943 b 493 939 499 940 499 939 b 489 942 492 939 489 939 b 389 1040 454 976 389 1032 b 396 1046 389 1044 393 1046 b 446 1007 404 1046 435 1017 b 499 943 456 994 499 947 z "},"":{"ha":800,"x_min":0,"x_max":0,"o":"m 28 346 b 599 -3 28 35 338 -3 b 690 42 642 -3 683 -11 l 714 235 l 714 265 b 633 283 714 289 649 283 b 386 281 550 283 479 281 b 363 297 378 281 363 286 l 363 339 b 383 342 363 339 378 342 b 706 372 494 351 593 349 b 771 550 771 385 771 526 b 511 882 776 715 696 882 b 28 346 239 882 28 601 z m 206 364 b 301 640 206 468 243 556 b 485 769 343 700 404 769 b 692 557 592 769 692 658 b 642 453 692 511 689 468 b 425 411 563 438 460 411 l 231 411 l 229 400 b 228 374 229 397 228 381 b 472 156 228 228 339 156 b 597 174 519 156 551 163 b 604 175 599 174 603 175 b 617 164 611 175 617 172 b 475 135 617 132 475 135 b 206 364 326 135 206 226 z m 486 750 b 321 631 418 750 357 685 b 233 439 281 572 232 481 l 233 433 l 417 433 b 638 474 488 433 568 457 b 665 600 676 483 675 576 b 486 750 647 672 561 750 z m 363 917 b 374 908 363 911 365 908 b 531 919 414 908 517 910 l 656 1033 b 660 1043 658 1038 660 1039 b 528 1075 660 1058 569 1075 b 478 1036 501 1075 494 1053 l 372 925 b 363 917 364 922 363 921 z m 469 650 b 518 543 513 650 518 571 b 388 508 518 499 399 507 l 386 508 b 469 650 386 546 425 650 z m 463 940 b 515 1004 463 944 506 992 b 565 1043 526 1014 557 1043 b 572 1038 568 1043 572 1042 b 472 939 572 1029 507 974 b 468 936 472 936 469 936 b 463 940 463 936 463 938 z "},"":{"ha":800,"x_min":0,"x_max":0,"o":"m 28 346 b 599 -3 28 35 338 -3 b 690 42 642 -3 683 -11 l 714 235 l 714 265 b 633 283 714 289 649 283 b 386 281 550 283 479 281 b 363 297 378 281 363 286 l 363 339 b 383 342 363 339 378 342 b 706 372 494 351 593 349 b 771 550 771 385 771 526 b 511 882 776 715 696 882 b 28 346 239 882 28 601 z m 206 364 b 301 640 206 468 243 556 b 485 769 343 700 404 769 b 692 557 592 769 692 658 b 642 453 692 511 689 468 b 425 411 563 438 460 411 l 231 411 l 229 400 b 228 374 229 397 228 381 b 472 156 228 228 339 156 b 597 174 519 156 551 163 b 604 175 599 174 603 175 b 617 164 611 175 617 172 b 475 135 617 132 475 135 b 206 364 326 135 206 226 z m 486 750 b 321 631 418 750 357 685 b 233 439 281 572 232 481 l 233 433 l 417 433 b 638 474 488 433 568 457 b 665 600 676 483 675 576 b 486 750 647 672 561 750 z m 267 944 b 379 929 267 921 350 929 b 469 1026 442 929 451 1006 b 599 931 500 1026 538 931 b 692 950 610 931 692 933 b 671 988 692 963 675 981 l 671 990 b 636 1040 671 994 650 1022 l 539 1156 b 472 1197 524 1174 499 1197 b 435 1175 457 1197 444 1186 l 267 947 z m 469 650 b 518 543 513 650 518 571 b 388 508 518 499 399 507 l 386 508 b 469 650 386 546 425 650 z m 354 979 b 363 996 354 985 360 992 l 464 1128 b 472 1132 465 1131 468 1132 b 604 993 501 1132 563 1039 b 597 986 604 990 601 986 b 474 1115 593 985 493 1103 l 472 1114 l 371 983 b 360 974 368 981 365 974 b 354 979 357 974 354 976 z "},"":{"ha":800,"x_min":0,"x_max":0,"o":"m 28 346 b 599 -3 28 35 338 -3 b 690 42 642 -3 683 -11 l 714 235 l 714 265 b 633 283 714 289 649 283 b 386 281 550 283 479 281 b 363 297 378 281 363 286 l 363 339 b 383 342 363 339 378 342 b 706 372 494 351 593 349 b 771 550 771 385 771 526 b 511 882 776 715 696 882 b 28 346 239 882 28 601 z m 206 364 b 301 640 206 468 243 556 b 485 769 343 700 404 769 b 692 557 592 769 692 658 b 642 453 692 511 689 468 b 425 411 563 438 460 411 l 231 411 l 229 400 b 228 374 229 397 228 381 b 472 156 228 228 339 156 b 597 174 519 156 551 163 b 604 175 599 174 603 175 b 617 164 611 175 617 172 b 475 135 617 132 475 135 b 206 364 326 135 206 226 z m 486 750 b 321 631 418 750 357 685 b 233 439 281 572 232 481 l 233 433 l 417 433 b 638 474 488 433 568 457 b 665 600 676 483 675 576 b 486 750 647 672 561 750 z m 264 999 b 457 1015 268 911 461 929 b 360 1085 454 1065 379 1086 b 264 999 321 1083 261 1046 z m 500 1006 b 590 943 503 958 553 942 b 683 1013 624 944 686 965 b 561 1085 679 1082 608 1088 b 500 1006 525 1083 499 1043 z m 469 650 b 518 543 513 650 518 571 b 388 508 518 499 399 507 l 386 508 b 469 650 386 546 425 650 z "},"":{"ha":499,"x_min":0,"x_max":0,"o":"m 28 69 l 28 22 b 207 -11 28 -19 161 -7 l 265 -11 b 392 0 306 -11 351 -10 b 471 656 417 11 471 471 b 324 704 471 697 422 704 b 100 681 283 704 100 714 z m 447 796 b 438 804 447 800 446 801 l 332 915 b 282 954 315 932 308 954 b 150 922 240 954 150 938 b 154 913 150 918 151 917 l 279 799 b 436 788 293 789 396 788 b 447 796 444 788 447 790 z m 272 594 b 289 628 272 604 276 628 b 297 619 296 628 297 626 b 293 600 297 613 293 607 b 236 68 250 140 264 68 b 228 74 233 68 228 68 z m 347 819 b 342 815 347 817 347 815 b 338 818 340 815 338 815 b 238 917 303 853 238 908 b 244 922 238 921 242 922 b 294 883 253 922 283 893 b 347 819 304 871 347 824 z "},"":{"ha":499,"x_min":0,"x_max":0,"o":"m 28 69 l 28 22 b 207 -11 28 -19 161 -7 l 265 -11 b 392 0 306 -11 351 -10 b 471 656 417 11 471 471 b 324 704 471 697 422 704 b 100 681 283 704 100 714 z m 150 796 b 161 788 150 790 153 788 b 318 799 201 788 304 789 l 443 913 b 447 922 446 917 447 918 b 315 954 447 938 357 954 b 265 915 289 954 282 932 l 160 804 b 150 796 151 801 150 800 z m 272 594 b 289 628 272 604 276 628 b 297 619 296 628 297 626 b 293 600 297 613 293 607 b 236 68 250 140 264 68 b 228 74 233 68 228 68 z m 250 819 b 303 883 250 824 293 871 b 353 922 314 893 344 922 b 360 917 356 922 360 921 b 260 818 360 908 294 853 b 256 815 260 815 257 815 b 250 819 250 815 250 817 z "},"":{"ha":528,"x_min":0,"x_max":0,"o":"m 28 69 l 28 22 b 207 -11 28 -19 161 -7 l 265 -11 b 392 0 306 -11 351 -10 b 471 656 417 11 471 471 b 324 704 471 697 422 704 b 100 681 283 704 100 714 z m 75 783 b 188 768 75 760 158 768 b 278 865 250 768 260 844 b 407 769 308 865 346 769 b 500 789 418 769 500 772 b 479 826 500 801 483 819 l 479 829 b 444 879 479 833 458 861 l 347 994 b 281 1036 332 1013 307 1036 b 243 1014 265 1036 253 1025 l 75 786 z m 272 594 b 289 628 272 604 276 628 b 297 619 296 628 297 626 b 293 600 297 613 293 607 b 236 68 250 140 264 68 b 228 74 233 68 228 68 z m 163 818 b 171 835 163 824 168 831 l 272 967 b 281 971 274 969 276 971 b 413 832 310 971 371 878 b 406 825 413 829 410 825 b 282 954 401 824 301 942 l 281 953 l 179 822 b 168 813 176 819 174 813 b 163 818 165 813 163 815 z "},"":{"ha":521,"x_min":0,"x_max":0,"o":"m 28 69 l 28 22 b 207 -11 28 -19 161 -7 l 265 -11 b 392 0 306 -11 351 -10 b 471 656 417 11 471 471 b 324 704 471 697 422 704 b 100 681 283 704 100 714 z m 72 838 b 265 854 76 750 269 768 b 168 924 263 904 188 925 b 72 838 129 922 69 885 z m 308 844 b 399 782 311 797 361 781 b 492 851 432 783 494 804 b 369 924 488 921 417 926 b 308 844 333 922 307 882 z m 272 594 b 289 628 272 604 276 628 b 297 619 296 628 297 626 b 293 600 297 613 293 607 b 236 68 250 140 264 68 b 228 74 233 68 228 68 z "},"":{"ha":797,"x_min":0,"x_max":0,"o":"m 28 360 b 368 14 28 156 172 14 b 769 504 603 14 769 222 b 464 801 769 710 653 801 b 219 728 383 801 282 764 b 28 360 97 657 28 501 z m 179 343 b 356 664 179 474 224 618 b 471 689 393 676 431 689 b 647 496 578 689 647 603 b 453 136 647 342 592 200 b 376 121 426 124 403 121 b 179 343 253 121 179 218 z m 200 351 b 376 142 200 238 254 142 b 629 497 556 142 629 350 b 464 669 629 594 560 669 b 364 644 428 669 396 657 l 353 640 b 200 351 239 594 200 468 z m 303 389 b 421 522 303 453 356 522 b 501 454 458 522 501 499 b 374 311 501 376 453 311 b 303 389 329 311 303 346 z m 611 888 b 601 896 611 892 610 893 l 496 1007 b 446 1046 479 1024 472 1046 b 314 1014 404 1046 314 1029 b 318 1004 314 1010 315 1008 l 443 890 b 600 879 457 881 560 879 b 611 888 608 879 611 882 z m 511 911 b 506 907 511 908 511 907 b 501 910 504 907 501 907 b 401 1008 467 944 401 1000 b 408 1014 401 1013 406 1014 b 458 975 417 1014 447 985 b 511 911 468 963 511 915 z "},"":{"ha":797,"x_min":0,"x_max":0,"o":"m 28 360 b 368 14 28 156 172 14 b 769 504 603 14 769 222 b 464 801 769 710 653 801 b 219 728 383 801 282 764 b 28 360 97 657 28 501 z m 179 343 b 356 664 179 474 224 618 b 471 689 393 676 431 689 b 647 496 578 689 647 603 b 453 136 647 342 592 200 b 376 121 426 124 403 121 b 179 343 253 121 179 218 z m 200 351 b 376 142 200 238 254 142 b 629 497 556 142 629 350 b 464 669 629 594 560 669 b 364 644 428 669 396 657 l 353 640 b 200 351 239 594 200 468 z m 303 389 b 421 522 303 453 356 522 b 501 454 458 522 501 499 b 374 311 501 376 453 311 b 303 389 329 311 303 346 z m 314 888 b 325 879 314 882 317 879 b 482 890 365 879 468 881 l 607 1004 b 611 1014 610 1008 611 1010 b 479 1046 611 1029 521 1046 b 429 1007 453 1046 446 1024 l 324 896 b 314 888 315 893 314 892 z m 414 911 b 467 975 414 915 457 963 b 517 1014 478 985 508 1014 b 524 1008 519 1014 524 1013 b 424 910 524 1000 458 944 b 419 907 424 907 421 907 b 414 911 414 907 414 908 z "},"":{"ha":797,"x_min":0,"x_max":0,"o":"m 28 360 b 368 14 28 156 172 14 b 769 504 603 14 769 222 b 464 801 769 710 653 801 b 219 728 383 801 282 764 b 28 360 97 657 28 501 z m 179 343 b 356 664 179 474 224 618 b 471 689 393 676 431 689 b 647 496 578 689 647 603 b 453 136 647 342 592 200 b 376 121 426 124 403 121 b 179 343 253 121 179 218 z m 200 351 b 376 142 200 238 254 142 b 629 497 556 142 629 350 b 464 669 629 594 560 669 b 364 644 428 669 396 657 l 353 640 b 200 351 239 594 200 468 z m 239 875 b 351 860 239 851 322 860 b 442 957 414 860 424 936 b 571 861 472 957 510 861 b 664 881 582 861 664 864 b 643 918 664 893 647 911 l 643 921 b 608 971 643 925 622 953 l 511 1086 b 444 1128 496 1104 471 1128 b 407 1106 429 1128 417 1117 l 239 878 z m 303 389 b 421 522 303 453 356 522 b 501 454 458 522 501 499 b 374 311 501 376 453 311 b 303 389 329 311 303 346 z m 326 910 b 335 926 326 915 332 922 l 436 1058 b 444 1063 438 1061 440 1063 b 576 924 474 1063 535 969 b 569 917 576 921 574 917 b 446 1046 565 915 465 1033 l 444 1044 l 343 914 b 332 904 340 911 338 904 b 326 910 329 904 326 907 z "},"":{"ha":797,"x_min":0,"x_max":0,"o":"m 28 360 b 368 14 28 156 172 14 b 769 504 603 14 769 222 b 464 801 769 710 653 801 b 219 728 383 801 282 764 b 28 360 97 657 28 501 z m 179 343 b 356 664 179 474 224 618 b 471 689 393 676 431 689 b 647 496 578 689 647 603 b 453 136 647 342 592 200 b 376 121 426 124 403 121 b 179 343 253 121 179 218 z m 200 351 b 376 142 200 238 254 142 b 629 497 556 142 629 350 b 464 669 629 594 560 669 b 364 644 428 669 396 657 l 353 640 b 200 351 239 594 200 468 z m 368 935 b 419 903 390 935 403 914 b 519 871 450 881 482 871 b 664 988 597 871 636 935 b 613 1050 664 994 633 1050 b 524 982 589 1050 569 983 b 492 992 513 982 500 985 l 419 1039 b 363 1056 401 1050 382 1056 b 224 907 275 1056 233 982 b 311 869 246 897 292 869 b 368 935 332 869 333 935 z m 303 389 b 421 522 303 453 356 522 b 501 454 458 522 501 499 b 374 311 501 376 453 311 b 303 389 329 311 303 346 z m 360 992 b 286 929 321 992 292 931 b 279 935 282 929 279 932 b 360 1004 279 957 326 1004 b 511 939 425 1004 453 939 b 554 953 525 940 542 943 l 618 994 b 622 996 618 996 621 996 b 629 992 625 996 629 996 b 510 926 629 978 550 926 b 360 992 451 926 419 992 z "},"":{"ha":797,"x_min":0,"x_max":0,"o":"m 28 360 b 368 14 28 156 172 14 b 769 504 603 14 769 222 b 464 801 769 710 653 801 b 219 728 383 801 282 764 b 28 360 97 657 28 501 z m 179 343 b 356 664 179 474 224 618 b 471 689 393 676 431 689 b 647 496 578 689 647 603 b 453 136 647 342 592 200 b 376 121 426 124 403 121 b 179 343 253 121 179 218 z m 200 351 b 376 142 200 238 254 142 b 629 497 556 142 629 350 b 464 669 629 594 560 669 b 364 644 428 669 396 657 l 353 640 b 200 351 239 594 200 468 z m 303 389 b 421 522 303 453 356 522 b 501 454 458 522 501 499 b 374 311 501 376 453 311 b 303 389 329 311 303 346 z m 236 929 b 429 946 240 842 433 860 b 332 1015 426 996 351 1017 b 236 929 293 1014 233 976 z m 472 936 b 563 874 475 889 525 872 b 656 943 596 875 658 896 b 533 1015 651 1013 581 1018 b 472 936 497 1014 471 974 z "},"":{"ha":797,"x_min":0,"x_max":0,"o":"m 28 360 b 185 63 28 226 89 121 b 146 -35 171 31 146 0 b 153 -47 149 -39 151 -43 b 263 -85 185 -65 228 -79 l 272 -79 b 329 15 294 -51 317 -19 b 368 14 342 14 354 14 b 769 504 603 14 769 222 b 660 751 769 624 729 704 b 703 843 668 783 683 814 b 586 903 732 882 604 903 b 511 799 557 903 526 844 b 464 801 496 800 481 801 b 219 728 383 801 282 764 b 28 360 97 657 28 501 z m 179 343 b 356 664 179 474 224 618 b 471 689 393 676 431 689 b 511 683 485 689 499 686 b 597 856 550 733 557 807 b 614 840 608 863 624 853 b 535 676 575 796 565 728 b 647 496 604 650 647 579 b 453 136 647 342 592 200 b 376 121 426 124 403 121 b 301 133 349 121 324 125 b 296 126 299 132 297 129 b 231 -3 271 88 250 31 b 207 1 226 -17 207 -12 b 282 143 208 11 261 108 b 179 343 217 178 179 254 z m 200 351 b 376 142 200 238 254 142 b 629 497 556 142 629 350 b 464 669 629 594 560 669 b 364 644 428 669 396 657 l 353 640 b 200 351 239 594 200 468 z m 303 389 b 421 522 303 453 356 522 b 501 454 458 522 501 499 b 374 311 501 376 453 311 b 303 389 329 311 303 346 z "},"":{"ha":918,"x_min":0,"x_max":0,"o":"m 489 139 b 553 32 494 97 488 32 b 749 53 618 32 683 42 b 778 82 763 54 774 68 l 889 761 b 836 786 893 789 850 785 b 647 815 807 790 668 814 b 628 803 639 815 629 811 b 413 313 596 639 542 435 b 350 279 397 297 372 279 b 335 313 336 279 335 289 b 447 754 335 342 336 360 b 450 772 447 758 451 772 b 428 794 450 785 439 794 l 289 794 b 213 804 267 797 218 804 l 210 804 b 185 794 201 804 189 804 l 89 581 b 28 274 58 511 28 378 b 244 35 28 139 99 35 b 485 139 340 35 417 75 z m 636 153 l 699 556 l 699 569 b 636 451 689 550 646 468 b 421 206 569 332 510 278 b 297 153 388 179 342 153 b 174 303 201 153 174 218 b 292 710 174 439 231 600 b 304 718 294 717 299 718 b 315 710 310 718 315 717 b 194 297 279 638 194 446 b 293 178 194 226 217 178 b 472 274 363 178 425 229 b 714 646 519 318 571 374 b 722 650 715 650 717 650 b 731 646 724 650 731 650 l 731 615 b 644 139 656 149 654 139 b 636 153 636 139 636 147 z m 675 874 b 665 882 675 878 674 879 l 560 993 b 510 1032 543 1010 536 1032 b 378 1000 468 1032 378 1015 b 382 990 378 996 379 994 l 507 876 b 664 865 521 867 624 865 b 675 874 672 865 675 868 z m 575 897 b 569 893 575 894 575 893 b 565 896 568 893 565 893 b 465 994 531 931 465 986 b 472 1000 465 999 469 1000 b 522 961 481 1000 511 971 b 575 897 532 949 575 901 z "},"":{"ha":918,"x_min":0,"x_max":0,"o":"m 489 139 b 553 32 494 97 488 32 b 749 53 618 32 683 42 b 778 82 763 54 774 68 l 889 761 b 836 786 893 789 850 785 b 647 815 807 790 668 814 b 628 803 639 815 629 811 b 413 313 596 639 542 435 b 350 279 397 297 372 279 b 335 313 336 279 335 289 b 447 754 335 342 336 360 b 450 772 447 758 451 772 b 428 794 450 785 439 794 l 289 794 b 213 804 267 797 218 804 l 210 804 b 185 794 201 804 189 804 l 89 581 b 28 274 58 511 28 378 b 244 35 28 139 99 35 b 485 139 340 35 417 75 z m 636 153 l 699 556 l 699 569 b 636 451 689 550 646 468 b 421 206 569 332 510 278 b 297 153 388 179 342 153 b 174 303 201 153 174 218 b 292 710 174 439 231 600 b 304 718 294 717 299 718 b 315 710 310 718 315 717 b 194 297 279 638 194 446 b 293 178 194 226 217 178 b 472 274 363 178 425 229 b 714 646 519 318 571 374 b 722 650 715 650 717 650 b 731 646 724 650 731 650 l 731 615 b 644 139 656 149 654 139 b 636 153 636 139 636 147 z m 378 874 b 389 865 378 868 381 865 b 546 876 429 865 532 867 l 671 990 b 675 1000 674 994 675 996 b 543 1032 675 1015 585 1032 b 493 993 517 1032 510 1010 l 388 882 b 378 874 379 879 378 878 z m 478 897 b 531 961 478 901 521 949 b 581 1000 542 971 572 1000 b 588 994 583 1000 588 999 b 488 896 588 986 522 931 b 483 893 488 893 485 893 b 478 897 478 893 478 894 z "},"":{"ha":918,"x_min":0,"x_max":0,"o":"m 489 139 b 553 32 494 97 488 32 b 749 53 618 32 683 42 b 778 82 763 54 774 68 l 889 761 b 836 786 893 789 850 785 b 647 815 807 790 668 814 b 628 803 639 815 629 811 b 413 313 596 639 542 435 b 350 279 397 297 372 279 b 335 313 336 279 335 289 b 447 754 335 342 336 360 b 450 772 447 758 451 772 b 428 794 450 785 439 794 l 289 794 b 213 804 267 797 218 804 l 210 804 b 185 794 201 804 189 804 l 89 581 b 28 274 58 511 28 378 b 244 35 28 139 99 35 b 485 139 340 35 417 75 z m 303 861 b 415 846 303 838 386 846 b 506 943 478 846 488 922 b 635 847 536 943 574 847 b 728 867 646 847 728 850 b 707 904 728 879 711 897 l 707 907 b 672 957 707 911 686 939 l 575 1072 b 508 1114 560 1090 535 1114 b 471 1092 493 1114 481 1103 l 303 864 z m 636 153 l 699 556 l 699 569 b 636 451 689 550 646 468 b 421 206 569 332 510 278 b 297 153 388 179 342 153 b 174 303 201 153 174 218 b 292 710 174 439 231 600 b 304 718 294 717 299 718 b 315 710 310 718 315 717 b 194 297 279 638 194 446 b 293 178 194 226 217 178 b 472 274 363 178 425 229 b 714 646 519 318 571 374 b 722 650 715 650 717 650 b 731 646 724 650 731 650 l 731 615 b 644 139 656 149 654 139 b 636 153 636 139 636 147 z m 390 896 b 399 913 390 901 396 908 l 500 1044 b 508 1049 501 1047 504 1049 b 640 910 538 1049 599 956 b 633 903 640 907 638 903 b 510 1032 629 901 529 1019 l 508 1031 l 407 900 b 396 890 404 897 401 890 b 390 896 393 890 390 893 z "},"":{"ha":918,"x_min":0,"x_max":0,"o":"m 489 139 b 553 32 494 97 488 32 b 749 53 618 32 683 42 b 778 82 763 54 774 68 l 889 761 b 836 786 893 789 850 785 b 647 815 807 790 668 814 b 628 803 639 815 629 811 b 413 313 596 639 542 435 b 350 279 397 297 372 279 b 335 313 336 279 335 289 b 447 754 335 342 336 360 b 450 772 447 758 451 772 b 428 794 450 785 439 794 l 289 794 b 213 804 267 797 218 804 l 210 804 b 185 794 201 804 189 804 l 89 581 b 28 274 58 511 28 378 b 244 35 28 139 99 35 b 485 139 340 35 417 75 z m 636 153 l 699 556 l 699 569 b 636 451 689 550 646 468 b 421 206 569 332 510 278 b 297 153 388 179 342 153 b 174 303 201 153 174 218 b 292 710 174 439 231 600 b 304 718 294 717 299 718 b 315 710 310 718 315 717 b 194 297 279 638 194 446 b 293 178 194 226 217 178 b 472 274 363 178 425 229 b 714 646 519 318 571 374 b 722 650 715 650 717 650 b 731 646 724 650 731 650 l 731 615 b 644 139 656 149 654 139 b 636 153 636 139 636 147 z m 300 915 b 493 932 304 828 497 846 b 396 1001 490 982 415 1003 b 300 915 357 1000 297 963 z m 536 922 b 626 860 539 875 589 858 b 719 929 660 861 722 882 b 597 1001 715 999 644 1004 b 536 922 561 1000 535 960 z "},"":{"ha":940,"x_min":0,"x_max":0,"o":"m 579 311 b 611 332 601 311 611 319 b 621 385 615 342 619 378 l 621 393 b 424 431 621 426 600 429 b 431 483 424 449 426 467 l 582 492 b 614 513 604 492 614 500 b 624 565 618 522 622 558 l 624 574 b 475 611 624 607 603 610 b 596 740 515 685 567 735 b 632 743 610 743 621 743 b 710 675 676 743 696 722 b 913 790 781 682 913 765 l 913 792 b 582 992 813 933 694 992 b 160 621 396 992 222 831 l 114 618 b 40 600 96 618 46 618 b 31 519 36 588 32 532 l 31 517 b 110 492 31 492 81 490 l 136 493 b 135 451 135 479 135 465 l 135 439 l 111 438 b 38 419 93 438 43 438 b 28 339 33 407 29 351 l 28 336 b 107 311 28 311 78 310 l 144 313 b 488 10 172 150 269 10 b 838 183 692 10 779 92 b 699 325 838 204 710 322 b 558 221 651 251 601 221 b 447 304 511 221 471 254 z m 100 358 b 100 386 83 364 83 381 b 289 381 163 385 225 383 l 289 392 b 308 542 289 436 296 488 l 125 542 b 125 569 108 547 108 564 l 315 569 b 590 871 358 719 451 871 b 771 781 681 871 719 854 b 765 767 771 771 772 767 b 738 792 753 767 744 785 b 590 850 688 846 664 850 b 338 569 463 850 378 710 l 547 569 b 547 542 567 567 567 544 l 331 542 b 310 390 317 486 310 433 l 310 379 b 539 372 386 376 463 372 b 539 344 558 369 558 347 b 311 351 463 344 388 349 b 514 129 324 242 392 129 b 668 214 585 129 625 171 l 676 222 b 685 225 679 225 681 225 b 692 207 693 225 692 213 b 517 106 646 157 588 106 b 290 353 375 106 303 229 b 100 358 226 356 163 357 z "}}}
